<!-- <svg width="84" height="26" viewBox="0 0 84 26" fill="none" xmlns="http://www.w3.org/2000/svg">
<g clip-path="url(#clip0_28_369)">
<path fill-rule="evenodd" clip-rule="evenodd" d="M51.8 19.66C46.967 23.233 39.938 25.137 33.875 25.137C25.7877 25.1773 17.976 22.2007 11.966 16.789C11.527 16.379 11.907 15.822 12.466 16.145C18.2859 19.4943 24.802 21.4512 31.5043 21.8628C38.2065 22.2743 44.913 21.1291 51.099 18.517C51.917 18.196 52.591 19.078 51.8 19.66Z" fill="#6A7A99"/>
<path fill-rule="evenodd" clip-rule="evenodd" d="M53.821 17.346C53.206 16.555 49.721 16.965 48.168 17.17C47.699 17.229 47.611 16.819 48.051 16.526C50.834 14.564 55.373 15.149 55.901 15.794C56.429 16.439 55.755 21.008 53.148 23.175C52.738 23.497 52.357 23.321 52.533 22.882C53.118 21.418 54.436 18.166 53.821 17.346Z" fill="#6A7A99"/>
<path fill-rule="evenodd" clip-rule="evenodd" d="M48.256 2.76V0.860005C48.2527 0.797543 48.2626 0.735089 48.285 0.676686C48.3074 0.618284 48.3418 0.565245 48.386 0.521016C48.4302 0.476786 48.4833 0.442339 48.5417 0.419942C48.6001 0.397545 48.6625 0.387698 48.725 0.391011H57.216C57.3443 0.38776 57.4686 0.435132 57.5622 0.522908C57.6558 0.610685 57.711 0.731798 57.716 0.860005V2.471C57.716 2.735 57.482 3.08601 57.072 3.67101L52.679 9.93902C54.3531 9.84883 56.0215 10.2013 57.516 10.961C57.6457 11.0352 57.7542 11.1415 57.8311 11.2697C57.9079 11.3979 57.9506 11.5436 57.955 11.693V13.714C57.955 14.007 57.662 14.329 57.34 14.153C55.9541 13.4357 54.4155 13.0637 52.8549 13.0688C51.2944 13.0738 49.7582 13.4557 48.377 14.182C48.3071 14.207 48.2322 14.2148 48.1586 14.2045C48.0851 14.1943 48.0151 14.1664 47.9547 14.1233C47.8943 14.0802 47.8452 14.0231 47.8116 13.9568C47.7781 13.8906 47.7611 13.8172 47.762 13.743V11.807C47.7332 11.3543 47.8457 10.9039 48.084 10.518L53.184 3.225H48.761C48.6327 3.22825 48.5084 3.18087 48.4148 3.0931C48.3212 3.00532 48.266 2.88421 48.261 2.756L48.256 2.76ZM17.297 14.56H14.716C14.6005 14.5484 14.492 14.4992 14.4072 14.4199C14.3225 14.3405 14.2662 14.2355 14.247 14.121V0.886006C14.252 0.757799 14.3072 0.636685 14.4008 0.548909C14.4944 0.461133 14.6187 0.413761 14.747 0.417012H17.147C17.2658 0.418628 17.3797 0.464508 17.4665 0.545705C17.5532 0.626902 17.6066 0.737566 17.616 0.856007V2.584H17.675C17.9031 1.86969 18.3523 1.24636 18.9578 0.804066C19.5633 0.361772 20.2937 0.123402 21.0435 0.123402C21.7933 0.123402 22.5238 0.361772 23.1293 0.804066C23.7348 1.24636 24.184 1.86969 24.412 2.584C24.669 1.84756 25.1538 1.21211 25.7963 0.769795C26.4387 0.327476 27.2053 0.101289 27.985 0.124013C28.5638 0.112336 29.137 0.239196 29.6567 0.494038C30.1765 0.74888 30.6278 1.12431 30.973 1.58901C31.793 2.70201 31.617 4.31301 31.617 5.74801V14.125C31.6121 14.2532 31.5568 14.3743 31.4632 14.4621C31.3696 14.5499 31.2453 14.5973 31.117 14.594H28.569C28.447 14.5867 28.332 14.5349 28.2455 14.4485C28.1591 14.3621 28.1074 14.247 28.1 14.125V7.096C28.1393 6.26565 28.1196 5.43357 28.041 4.60601C27.9873 4.25373 27.7974 3.93661 27.5121 3.72301C27.2269 3.50941 26.8692 3.41641 26.516 3.46401C26.1798 3.47371 25.8538 3.58147 25.578 3.77407C25.3023 3.96666 25.0889 4.23568 24.964 4.54799C24.7518 5.37961 24.6728 6.23963 24.73 7.096V14.125C24.7251 14.2532 24.6698 14.3743 24.5762 14.4621C24.4827 14.5499 24.3583 14.5973 24.23 14.594H21.653C21.531 14.5867 21.416 14.5349 21.3295 14.4485C21.2431 14.3621 21.1914 14.247 21.184 14.125V7.096C21.184 5.631 21.418 3.43502 19.602 3.43502C17.757 3.43502 17.815 5.544 17.815 7.096V14.125C17.7966 14.2502 17.7327 14.3643 17.6354 14.4453C17.5382 14.5263 17.4145 14.5686 17.288 14.564L17.297 14.56ZM65.039 0.120015C68.876 0.120015 70.956 3.40001 70.956 7.58901C70.956 11.631 68.671 14.853 65.039 14.853C61.29 14.853 59.239 11.573 59.239 7.472C59.21 3.342 61.289 0.120015 65.039 0.120015ZM65.039 2.84401C63.139 2.84401 63.018 5.451 63.018 7.062C63.018 8.673 62.989 12.129 65.01 12.129C67.002 12.129 67.119 9.346 67.119 7.648C67.155 6.46436 67.0268 5.28146 66.738 4.13302C66.658 3.74946 66.4416 3.40789 66.129 3.17162C65.8165 2.93535 65.4289 2.8204 65.038 2.84801L65.039 2.84401ZM75.905 14.56H73.328C73.206 14.5527 73.091 14.5009 73.0045 14.4144C72.9181 14.328 72.8664 14.213 72.859 14.091V0.827016C72.8752 0.705764 72.9348 0.594463 73.0267 0.513753C73.1186 0.433043 73.2367 0.388363 73.359 0.38799H75.759C75.868 0.391634 75.9729 0.430865 76.0576 0.499654C76.1423 0.568442 76.2021 0.663025 76.228 0.769002V2.79H76.287C77.019 0.973998 78.015 0.124989 79.802 0.124989C80.3966 0.0979752 80.9879 0.227022 81.5172 0.499287C82.0464 0.771553 82.4952 1.17756 82.819 1.67699C83.493 2.73199 83.493 4.518 83.493 5.807V14.155C83.4753 14.2731 83.4143 14.3805 83.322 14.4563C83.2296 14.532 83.1123 14.5708 82.993 14.565H80.416C80.3047 14.5545 80.1995 14.5092 80.1154 14.4357C80.0312 14.3621 79.9723 14.2639 79.947 14.155V6.95C79.947 5.486 80.123 3.377 78.336 3.377C78.0125 3.3921 77.6999 3.49933 77.4352 3.68605C77.1706 3.87278 76.9647 4.13123 76.842 4.43099C76.5287 5.2322 76.389 6.09079 76.432 6.95V14.097C76.4158 14.2257 76.3535 14.3442 76.2565 14.4304C76.1596 14.5167 76.0347 14.5648 75.905 14.566V14.56ZM41.49 8.23299C41.5857 9.17619 41.4236 10.1277 41.021 10.986C40.8577 11.3252 40.605 11.6135 40.2902 11.82C39.9753 12.0265 39.6102 12.1433 39.234 12.158C38.234 12.158 37.652 11.396 37.652 10.283C37.652 8.08301 39.614 7.67601 41.489 7.67601L41.49 8.23299ZM44.097 14.533C44.0135 14.6059 43.9093 14.6508 43.799 14.6614C43.6887 14.672 43.5778 14.6477 43.482 14.592C42.8854 14.1092 42.3795 13.5241 41.988 12.864C41.4773 13.4884 40.8266 13.9835 40.0887 14.3093C39.3508 14.6351 38.5465 14.7823 37.741 14.739C37.2125 14.77 36.6835 14.6863 36.1904 14.4935C35.6974 14.3007 35.2519 14.0034 34.8846 13.6221C34.5172 13.2408 34.2368 12.7846 34.0625 12.2847C33.8883 11.7847 33.8243 11.253 33.875 10.726C33.8446 9.82521 34.0927 8.93695 34.5853 8.18218C35.0779 7.42741 35.7912 6.84282 36.628 6.50802C38.2001 5.98659 39.8357 5.68111 41.49 5.6V5.278C41.5776 4.63477 41.4651 3.98017 41.168 3.403C40.9996 3.18466 40.7816 3.0096 40.532 2.89238C40.2825 2.77517 40.0086 2.71916 39.733 2.72899C39.2563 2.68739 38.7809 2.82257 38.3973 3.10875C38.0138 3.39494 37.7489 3.81215 37.653 4.281C37.594 4.515 37.453 4.74999 37.214 4.74999L34.724 4.48601C34.6639 4.47756 34.6061 4.45705 34.554 4.42571C34.502 4.39437 34.4569 4.35285 34.4213 4.30364C34.3857 4.25443 34.3604 4.19852 34.347 4.1393C34.3335 4.08008 34.3322 4.01876 34.343 3.959C34.929 0.913004 37.653 0.00499424 40.113 0.00499424C41.5267 -0.0554585 42.9138 0.40298 44.013 1.294C45.272 2.466 45.155 4.04699 45.155 5.74599V9.75899C45.1714 10.6507 45.5157 11.5051 46.122 12.159C46.298 12.393 46.327 12.686 46.122 12.833C45.561 13.275 44.622 14.095 44.097 14.533ZM7.66101 8.23299C7.75675 9.17619 7.59464 10.1277 7.192 10.986C7.02865 11.3252 6.776 11.6135 6.46117 11.82C6.14634 12.0265 5.78123 12.1433 5.40502 12.158C4.40502 12.158 3.82301 11.396 3.82301 10.283C3.82301 8.08301 5.78501 7.67601 7.66001 7.67601L7.66101 8.23299ZM10.239 14.533C10.1555 14.6059 10.0513 14.6508 9.941 14.6614C9.83068 14.672 9.71982 14.6477 9.62401 14.592C9.02744 14.1092 8.52154 13.5241 8.13001 12.864C7.61931 13.4884 6.96861 13.9835 6.2307 14.3093C5.49279 14.6351 4.68847 14.7823 3.88301 14.739C3.35449 14.77 2.82552 14.6863 2.33244 14.4935C1.83937 14.3007 1.39387 14.0034 1.02655 13.6221C0.659238 13.2408 0.378811 12.7846 0.204546 12.2847C0.0302803 11.7847 -0.0336902 11.253 0.0170153 10.726C-0.0133488 9.82521 0.234659 8.93695 0.727281 8.18218C1.2199 7.42741 1.93319 6.84282 2.77001 6.50802C4.34208 5.98659 5.9777 5.68111 7.63201 5.6V5.278C7.71956 4.63477 7.60716 3.98017 7.31001 3.403C7.14164 3.18466 6.92361 3.0096 6.67404 2.89238C6.42448 2.77517 6.15055 2.71916 5.875 2.72899C5.39826 2.68739 4.92288 2.82257 4.53934 3.10875C4.15579 3.39494 3.89088 3.81215 3.79502 4.281C3.73602 4.515 3.59 4.74999 3.356 4.74999L0.866014 4.48601C0.805878 4.47756 0.748063 4.45705 0.696047 4.42571C0.64403 4.39437 0.598875 4.35285 0.563295 4.30364C0.527716 4.25443 0.502438 4.19852 0.488985 4.1393C0.475532 4.08008 0.474178 4.01876 0.485002 3.959C1.071 0.913004 3.79501 0.00499424 6.25501 0.00499424C7.66872 -0.0554585 9.05578 0.40298 10.155 1.294C11.414 2.466 11.297 4.04699 11.297 5.74599V9.75899C11.3135 10.6506 11.6577 11.505 12.264 12.159C12.44 12.393 12.469 12.686 12.264 12.833C11.707 13.272 10.77 14.092 10.243 14.533H10.239Z" fill="#6A7A99"/>
</g>
<defs>
<clipPath id="clip0_28_369">
<rect width="83.493" height="25.138" fill="white"/>
</clipPath>
</defs>
</svg> -->
<svg width="73" height="73" viewBox="0 0 1468.000000 1227.000000" xmlns="http://www.w3.org/2000/svg">
  <g transform="translate(0.000000,1227.000000) scale(0.100000,-0.100000)" fill="#F5F7FE" stroke="none">
    <path d="M0 6135 l0 -6135 7340 0 7340 0 0 6135 0 6135 -7340 0 -7340 0 0
-6135z m7324 5957 l49 -17 11 -20 c14 -25 48 -54 63 -55 17 0 73 -80 73 -104
0 -28 12 -45 41 -60 13 -7 23 -19 21 -26 -4 -19 49 -121 70 -134 10 -6 18 -16
18 -21 0 -6 6 -23 13 -38 l12 -27 17 0 17 0 7 -22 c4 -13 7 -29 5 -36 -1 -8 4
-21 12 -30 7 -10 20 -32 27 -50 7 -18 20 -38 29 -45 10 -7 23 -26 30 -44 7
-17 21 -33 31 -36 l19 -5 6 -28 c3 -16 18 -53 33 -81 l26 -53 17 0 17 0 -5
-20 -5 -20 15 0 15 0 31 -55 c17 -30 31 -63 31 -72 0 -26 37 -83 54 -83 l15 0
31 -61 c16 -33 40 -73 52 -89 12 -16 22 -40 23 -54 0 -13 12 -41 26 -62 14
-22 40 -61 57 -89 17 -27 36 -55 41 -61 5 -6 21 -34 35 -62 14 -27 29 -52 33
-54 4 -1 21 -30 38 -63 16 -33 38 -69 48 -80 10 -11 25 -34 33 -52 9 -17 24
-33 34 -36 l19 -5 -6 -22 c-3 -12 -2 -25 3 -29 10 -7 25 -30 54 -84 12 -21 27
-40 35 -44 8 -3 15 -11 15 -19 0 -24 23 -64 37 -64 l13 0 0 -25 c0 -14 5 -25
10 -25 6 0 10 -7 10 -15 0 -8 3 -15 8 -15 4 0 23 -29 41 -65 19 -36 41 -65 48
-65 7 0 22 -17 33 -37 12 -21 32 -53 45 -72 l25 -34 0 -29 0 -28 25 -10 c14
-5 25 -15 25 -22 0 -7 21 -44 46 -82 25 -38 47 -81 48 -96 2 -24 35 -81 116
-200 10 -15 29 -49 44 -78 14 -29 31 -52 36 -52 6 0 10 -6 10 -14 0 -8 10 -27
23 -43 12 -15 31 -46 42 -67 11 -22 28 -54 38 -73 l17 -33 20 0 c19 0 24 -10
21 -38 -2 -11 75 -151 89 -162 3 -3 12 -20 19 -37 l13 -33 18 0 18 0 -5 -19
-5 -18 21 -6 21 -5 0 -24 c0 -12 11 -41 25 -63 14 -22 28 -47 31 -57 3 -9 14
-18 24 -21 21 -5 65 -83 62 -108 l-3 -16 21 -6 20 -5 0 -31 0 -31 25 -10 c14
-5 31 -22 37 -37 7 -16 27 -52 45 -81 18 -29 33 -62 33 -75 0 -24 35 -87 48
-87 4 0 23 -28 41 -62 37 -73 132 -232 153 -256 8 -9 21 -32 28 -50 7 -18 21
-38 31 -45 10 -7 21 -25 25 -41 l7 -27 23 -9 24 -9 -6 -15 -6 -15 44 -71 c24
-40 47 -81 53 -91 5 -10 13 -19 17 -19 5 0 8 -6 8 -14 0 -7 9 -16 19 -19 l20
-5 -5 -20 -6 -19 21 -6 21 -5 0 -23 c0 -26 46 -109 60 -109 6 0 10 -6 10 -14
0 -8 7 -16 15 -19 18 -8 60 -87 56 -109 l-2 -18 20 0 20 0 -5 -14 c-7 -19 13
-56 30 -56 7 0 30 -30 49 -68 20 -37 44 -77 55 -90 11 -12 22 -39 26 -60 3
-21 15 -47 26 -59 11 -12 33 -49 50 -81 16 -33 37 -65 46 -73 8 -7 22 -28 30
-47 7 -19 34 -64 58 -101 24 -36 48 -76 55 -88 6 -12 17 -27 24 -35 7 -7 19
-28 26 -45 7 -18 20 -33 27 -33 l14 0 0 -24 c0 -14 11 -38 25 -54 14 -17 25
-33 25 -37 0 -16 56 -94 67 -95 16 0 41 -50 36 -72 l-4 -18 19 0 20 0 -5 -20
-5 -20 11 0 c6 0 11 -6 11 -14 0 -25 34 -76 52 -76 l16 0 -5 -20 -5 -20 10 0
c17 0 96 -122 94 -144 -1 -25 15 -56 31 -56 10 0 64 -75 76 -105 2 -5 13 -26
26 -45 13 -19 26 -51 29 -71 3 -19 14 -44 24 -55 26 -30 57 -75 81 -119 12
-22 35 -64 51 -94 16 -30 33 -57 38 -60 5 -3 28 -40 52 -81 24 -41 46 -77 50
-80 3 -3 12 -20 19 -37 l13 -33 18 0 18 0 -5 -20 -5 -20 15 0 15 0 -5 -18 -4
-18 15 -13 c9 -8 16 -19 16 -26 0 -8 11 -27 25 -43 14 -17 25 -35 25 -41 0 -6
4 -11 9 -11 5 0 12 -11 15 -25 4 -14 13 -25 21 -25 18 0 40 -39 36 -62 -1 -10
3 -18 8 -18 6 0 11 -6 11 -14 0 -22 34 -76 48 -76 6 0 12 -9 12 -20 l0 -20 14
0 c16 0 92 -127 88 -146 -5 -22 17 -54 37 -54 l19 0 11 -27 c14 -35 51 -101
74 -133 9 -13 17 -34 17 -45 0 -23 11 -43 58 -110 18 -26 41 -63 52 -83 32
-59 64 -110 80 -130 8 -10 28 -43 44 -73 16 -30 38 -67 50 -84 12 -16 27 -42
35 -57 7 -14 22 -28 32 -31 l18 -5 -6 -21 -5 -21 15 0 15 0 -5 -18 -4 -18 15
-13 c9 -8 16 -19 16 -27 0 -7 14 -27 30 -44 17 -17 30 -35 30 -40 0 -20 24
-60 36 -60 15 0 40 -39 35 -54 -2 -9 18 -55 29 -66 15 -15 50 -71 50 -80 0 -5
6 -10 14 -10 8 0 27 -22 42 -50 15 -27 30 -50 34 -50 12 0 33 -54 31 -78 l-2
-22 20 -8 c19 -7 42 -38 73 -102 7 -14 21 -34 30 -44 10 -11 18 -32 18 -46 l0
-26 69 -105 c38 -58 82 -129 97 -157 15 -29 31 -52 35 -52 4 0 9 -10 13 -23 3
-12 13 -32 23 -43 22 -24 46 -65 72 -120 l19 -41 21 -6 21 -5 -6 -17 c-4 -9
-3 -20 3 -24 5 -3 25 -35 43 -70 19 -35 40 -65 47 -68 7 -3 13 -14 13 -24 l0
-19 14 0 14 0 -5 -20 -5 -20 17 0 c20 0 44 -27 45 -49 0 -27 43 -111 57 -111
7 0 20 -12 30 -27 10 -16 23 -34 30 -41 7 -7 13 -18 13 -23 0 -10 52 -128 77
-174 l16 -30 5 -121 4 -120 -16 -16 c-9 -9 -16 -23 -16 -30 0 -8 -16 -33 -35
-56 l-36 -41 -14 6 c-9 3 -26 -2 -40 -11 -13 -9 -32 -16 -42 -16 -10 0 -34
-10 -53 -23 l-35 -22 -1015 -3 c-558 -2 -1048 0 -1087 3 l-73 7 0 15 0 14 -22
-2 c-37 -3 -88 12 -88 26 0 8 -13 16 -30 20 -16 4 -30 11 -30 17 l0 10 -25 -4
-25 -5 -1 11 c0 14 -86 71 -119 79 -14 3 -29 16 -35 29 l-10 23 -22 3 -23 3 0
16 c0 8 -36 52 -80 97 -44 45 -80 89 -80 98 0 9 -7 21 -15 28 -8 7 -15 18 -15
24 0 7 -13 27 -29 45 l-29 32 5 20 5 19 -14 0 c-7 0 -26 24 -41 53 -15 30 -27
58 -27 64 0 5 -9 18 -20 28 -11 10 -20 29 -20 42 l0 24 -33 32 c-36 35 -67 80
-67 97 0 6 -11 28 -25 50 -14 22 -25 44 -25 49 0 17 -45 80 -57 81 -7 0 -15
16 -19 35 l-6 35 -13 0 -13 0 -13 50 c-7 27 -16 50 -21 50 -4 0 -8 4 -8 9 0 6
-11 22 -25 37 -14 15 -25 33 -25 40 0 8 -6 14 -13 14 -16 0 -41 48 -38 73 1 9
-2 17 -7 17 -10 0 -58 71 -68 102 -4 13 -21 40 -39 61 l-33 38 5 20 5 19 -13
0 c-14 1 -69 82 -69 102 0 5 -13 30 -30 55 -16 24 -30 49 -30 54 0 19 -34 69
-47 69 -7 0 -13 6 -13 14 0 7 -7 19 -14 26 -8 6 -20 28 -27 48 -6 20 -19 45
-28 56 -9 10 -15 27 -13 37 2 10 -1 19 -6 19 -4 0 -16 16 -25 35 -9 19 -23 35
-30 35 -16 0 -41 47 -38 71 1 9 -5 19 -13 22 -8 3 -20 23 -25 44 -6 21 -22 51
-36 67 -14 16 -25 33 -25 38 0 4 -6 8 -14 8 -16 0 -26 21 -26 56 l0 24 -13 0
c-7 0 -30 35 -52 77 -22 43 -54 93 -71 113 -17 19 -42 59 -54 88 -12 28 -26
52 -31 52 -4 0 -14 18 -20 40 -7 21 -23 49 -35 61 -13 13 -24 32 -24 45 0 12
-11 32 -25 45 -13 13 -25 30 -25 37 0 6 -4 12 -8 12 -9 0 -82 140 -82 155 0
16 -45 75 -56 75 -13 0 -24 23 -24 51 0 10 -6 19 -13 19 -7 0 -23 28 -37 63
-13 34 -30 68 -37 75 -7 7 -13 18 -13 23 0 5 -18 27 -40 49 l-40 39 6 16 7 16
-16 12 c-9 7 -28 37 -44 67 -15 30 -40 71 -56 91 -15 20 -27 43 -27 52 0 10
-6 17 -14 17 -8 0 -17 12 -21 27 -3 16 -12 35 -19 43 -16 19 -76 131 -76 142
0 16 -45 78 -57 78 -7 0 -13 6 -13 13 0 8 -9 24 -20 37 -11 13 -20 28 -20 34
0 6 -10 27 -22 46 -12 19 -21 43 -19 52 1 10 -2 18 -7 18 -5 0 -15 14 -22 30
-7 17 -18 30 -24 30 -15 0 -52 57 -48 75 1 8 -6 23 -18 35 -11 11 -20 29 -20
39 0 11 -4 22 -9 26 -6 3 -20 26 -33 52 -13 25 -30 48 -39 50 l-17 5 -6 39 -6
39 -14 0 -13 0 -36 73 c-19 39 -47 83 -62 97 -15 14 -47 68 -72 120 -25 52
-56 108 -69 123 -13 16 -24 35 -24 42 0 23 -22 65 -35 65 -11 0 -85 129 -85
150 0 7 -13 32 -30 57 -16 24 -30 48 -30 53 0 5 -9 14 -20 20 -11 6 -20 20
-20 30 0 11 -6 20 -13 20 l-14 0 -14 43 c-7 23 -28 66 -46 96 -18 30 -33 58
-33 62 0 4 -9 9 -19 12 l-20 5 6 21 5 21 -11 0 c-6 0 -11 7 -11 15 0 8 -6 15
-12 15 -7 1 -26 29 -42 63 -16 34 -38 74 -48 89 -10 14 -18 33 -18 41 0 8 -15
31 -34 50 -19 20 -48 65 -65 101 -16 35 -37 66 -45 69 l-16 6 0 23 c0 24 -19
57 -52 90 -10 10 -29 42 -43 71 -13 28 -29 59 -34 67 -5 8 -20 36 -32 63 -13
26 -29 47 -35 47 -13 0 -24 23 -24 51 0 10 -6 19 -14 19 l-13 0 -42 84 c-23
46 -60 104 -81 129 -22 25 -40 50 -40 56 0 5 -20 50 -45 98 -25 48 -45 93 -45
100 0 7 -4 13 -10 13 -5 0 -10 7 -10 15 0 9 -7 18 -15 21 -8 4 -15 12 -15 20
0 8 -6 14 -14 14 l-13 0 -31 68 c-17 37 -36 74 -41 82 -5 8 -20 36 -32 63 -13
26 -28 47 -34 47 -13 0 -43 50 -70 115 -11 28 -32 69 -47 92 -16 24 -28 47
-28 52 0 6 -8 15 -19 20 l-19 10 -6 36 -7 35 -13 0 c-7 0 -29 33 -49 73 -19
40 -45 81 -56 91 -12 11 -21 30 -21 43 l0 23 -15 0 c-8 0 -15 7 -15 15 0 8 -4
15 -9 15 -5 0 -21 29 -36 65 -15 35 -36 72 -46 81 -11 10 -19 27 -19 40 l0 23
-27 27 c-38 38 -69 85 -83 128 -6 19 -16 38 -21 41 -5 4 -9 14 -9 24 0 10 -11
30 -25 45 -14 15 -25 31 -25 37 0 5 -6 9 -12 9 -13 0 -38 44 -38 66 0 7 -11
25 -24 39 l-24 26 5 18 5 19 -20 14 c-11 7 -28 30 -38 51 -10 20 -23 37 -30
37 -6 0 -15 8 -18 18 -7 18 -28 62 -50 102 -30 54 -95 187 -110 222 -8 20 -12
46 -9 58 l6 21 -17 12 -17 12 -3 40 c-2 22 -4 50 -5 63 l-1 22 -15 0 -15 0 0
150 0 150 14 0 15 0 22 73 c12 39 31 92 42 116 11 24 20 56 21 72 l1 29 12 0
c6 0 17 16 24 35 7 19 16 35 19 35 9 0 30 47 30 65 0 8 12 33 28 57 38 60 47
76 78 136 15 28 33 52 41 52 7 0 13 9 13 19 0 11 4 21 8 23 12 5 52 74 52 90
0 8 22 53 50 99 27 46 50 90 50 97 0 6 7 12 15 12 9 0 19 8 22 18 4 9 22 39
40 66 18 27 36 60 40 75 3 14 17 47 31 74 l24 47 15 0 15 0 -6 25 -6 25 18 0
19 0 22 48 c62 132 105 212 115 212 6 0 24 19 39 41 l29 40 -6 14 -5 15 24 6
c14 3 25 10 25 15 0 5 6 9 13 9 6 0 23 12 37 26 13 14 36 31 50 37 31 13 128
23 235 25 l80 1 49 -17z m-2195 -3542 c34 -14 135 -111 166 -159 12 -20 32
-45 44 -55 11 -11 21 -23 21 -28 0 -4 17 -37 38 -71 21 -35 41 -71 45 -80 4
-10 17 -21 31 -27 l24 -9 -5 -19 -5 -19 21 -6 21 -5 -6 -15 -6 -16 38 -58 c20
-32 40 -60 44 -63 4 -3 19 -27 34 -55 35 -67 97 -167 110 -181 6 -5 19 -13 28
-16 l16 -7 -5 -19 -5 -20 29 -42 c15 -24 33 -50 38 -59 6 -8 28 -43 50 -76 23
-33 49 -77 59 -99 10 -21 27 -41 37 -43 l19 -5 0 -23 0 -23 20 -5 20 -5 -6
-15 -6 -15 62 -99 c34 -54 74 -116 89 -138 15 -22 32 -52 39 -67 6 -16 18 -28
26 -28 16 0 31 -35 27 -62 l-2 -18 15 0 15 0 31 -62 30 -63 0 -125 0 -126 -30
-59 c-16 -33 -30 -63 -30 -67 0 -12 -33 -48 -44 -48 -12 0 -35 -31 -36 -48 0
-7 -13 -31 -30 -54 -16 -22 -30 -47 -30 -55 0 -7 -4 -13 -8 -13 -4 0 -19 -22
-33 -50 -13 -27 -27 -50 -31 -50 -4 0 -19 -22 -32 -49 -14 -27 -39 -69 -56
-94 -16 -25 -30 -49 -30 -54 0 -6 -10 -22 -22 -36 -13 -15 -34 -48 -48 -74
-13 -27 -39 -69 -57 -95 -18 -26 -33 -51 -33 -54 0 -3 -13 -26 -30 -51 -16
-24 -30 -48 -30 -52 0 -4 -9 -16 -19 -25 -11 -10 -21 -32 -23 -50 l-3 -31 -22
-9 c-11 -6 -27 -22 -35 -37 -35 -71 -69 -128 -78 -134 -5 -3 -10 -19 -10 -35
l0 -29 -25 -19 c-46 -36 -124 -168 -139 -235 l-7 -28 -20 -7 c-11 -4 -25 -18
-32 -29 -7 -12 -31 -53 -54 -92 -24 -38 -43 -77 -43 -85 0 -9 -4 -16 -10 -16
-5 0 -10 -7 -10 -15 0 -8 -4 -15 -10 -15 -8 0 -58 -81 -109 -175 -9 -16 -28
-46 -42 -65 -15 -19 -41 -62 -59 -95 -18 -33 -41 -72 -51 -87 -11 -14 -19 -30
-19 -36 0 -5 -7 -15 -15 -22 -25 -21 -83 -126 -87 -157 l-3 -28 -20 -9 c-22
-10 -67 -74 -90 -129 -8 -20 -19 -38 -25 -42 -5 -3 -10 -17 -10 -31 l0 -24
-16 0 -16 0 5 -20 5 -20 -16 0 -17 -1 -51 -88 c-29 -49 -58 -105 -65 -125 -7
-20 -19 -36 -26 -36 -7 0 -19 -12 -26 -27 -6 -16 -14 -30 -17 -33 -4 -4 -21
-34 -69 -124 -9 -16 -25 -39 -37 -52 -11 -13 -40 -61 -64 -106 -24 -46 -54
-97 -66 -114 -13 -17 -24 -36 -24 -42 0 -7 -4 -12 -8 -12 -5 0 -23 -28 -42
-62 -18 -35 -51 -88 -72 -119 l-38 -56 0 -27 c0 -14 -4 -26 -10 -26 -16 0 -12
-37 5 -44 9 -3 1030 -6 2270 -6 l2254 -1 16 -16 16 -15 39 6 40 6 0 -9 c0 -15
78 -34 163 -40 4 -1 7 -7 7 -15 0 -15 10 -19 69 -31 l33 -7 5 -19 5 -19 24 0
24 0 0 -20 0 -20 19 0 c23 0 37 -18 33 -42 -2 -10 2 -18 7 -18 6 0 11 -5 11
-11 0 -16 26 -39 44 -39 16 0 20 -10 17 -42 l-2 -18 19 0 20 0 -5 -20 -5 -19
23 -33 c13 -18 26 -35 29 -38 9 -7 91 -143 116 -192 11 -22 27 -46 35 -52 8
-6 20 -23 26 -38 7 -16 17 -28 23 -28 5 0 10 -9 10 -20 0 -19 20 -52 73 -121
15 -20 27 -39 27 -43 0 -4 15 -31 33 -59 19 -29 46 -74 61 -101 16 -26 35 -56
45 -65 9 -9 27 -38 41 -65 14 -26 33 -63 43 -82 l19 -34 16 0 17 0 23 -47 c12
-27 22 -54 22 -61 0 -12 45 -86 67 -109 6 -7 16 -13 22 -13 6 0 11 -9 11 -20
0 -10 14 -42 30 -70 17 -28 37 -67 45 -86 l14 -34 23 -10 c13 -5 17 -9 9 -9
l-13 -1 6 -22 c4 -13 13 -47 21 -75 l15 -52 -6 -31 c-4 -17 -11 -33 -15 -36
-5 -3 -9 -13 -9 -23 0 -9 -12 -29 -27 -42 -38 -35 -102 -71 -114 -63 -5 3 -23
3 -39 -1 l-30 -7 0 -14 0 -14 -4565 0 -4566 0 -5 15 c-4 8 -12 15 -20 15 -24
0 -107 31 -121 46 -8 8 -22 14 -31 14 -21 1 -92 65 -92 85 0 7 -8 20 -18 27
-9 7 -33 39 -52 70 -19 32 -38 58 -42 58 -4 0 -8 70 -8 155 l0 155 14 0 13 0
61 122 c33 68 69 132 79 143 18 18 34 47 115 194 17 30 37 61 45 69 8 8 24 35
37 61 33 66 87 164 101 181 6 8 38 62 70 120 33 58 62 107 65 110 3 3 23 34
43 70 21 36 64 108 97 160 32 52 59 99 59 103 1 4 18 34 38 65 21 31 45 71 54
87 60 112 111 200 255 438 32 54 75 126 95 162 20 35 46 76 58 91 12 15 21 32
21 38 0 6 14 31 31 56 16 25 42 67 57 94 15 27 32 56 37 65 6 9 32 57 59 106
27 50 52 92 56 95 9 7 92 148 107 183 7 16 26 45 42 65 15 21 40 60 55 87 37
72 67 122 107 185 19 30 70 118 113 195 44 77 105 182 137 233 33 50 59 96 59
101 0 5 22 42 48 83 48 72 73 114 127 213 15 28 34 57 41 66 8 8 42 67 77 130
35 63 81 143 102 179 21 36 50 85 64 110 14 25 33 54 43 64 10 11 18 25 18 32
0 7 20 43 45 80 25 36 45 69 45 72 0 3 17 32 38 66 21 34 41 69 45 79 4 9 24
43 45 75 22 31 67 108 101 171 34 62 76 136 94 165 18 28 50 83 72 121 21 39
57 97 79 130 22 33 49 78 59 100 10 22 29 54 43 72 13 17 24 35 24 38 0 4 14
27 30 52 17 24 39 61 49 81 10 20 35 62 55 92 20 30 36 58 36 63 0 5 14 28 30
52 17 24 30 47 30 51 0 4 6 15 14 23 7 9 31 48 51 86 76 141 87 160 101 175
12 15 77 127 112 195 9 17 18 32 21 35 13 11 50 68 71 110 12 25 37 68 54 95
43 67 98 160 127 215 13 25 28 52 35 60 6 8 30 50 52 92 23 43 56 98 74 122
18 25 48 69 66 99 19 29 58 80 88 112 30 32 54 62 54 66 0 5 5 9 10 9 6 0 20
9 32 20 12 11 28 20 35 20 7 0 13 4 13 10 l0 9 73 3 72 3 3 -12 c2 -6 16 -16
31 -23z" />
  </g>
  <g transform="translate(0.000000,1227.000000) scale(0.100000,-0.100000)" fill="#6A7A99" stroke="none">
    <path d="M7040 12111 c-79 -9 -106 -20 -144 -57 l-29 -29 11 22 c7 12 24 31
38 42 15 12 22 21 15 21 -6 0 -29 -16 -51 -37 l-41 -36 5 -14 c3 -8 2 -12 -2
-9 -4 2 -14 -1 -22 -7 -25 -20 -70 -78 -70 -90 0 -7 10 3 21 21 12 17 25 32
31 32 5 0 -3 -18 -19 -39 -15 -22 -32 -39 -36 -38 -5 1 -27 -32 -50 -74 -23
-42 -54 -92 -70 -112 -15 -20 -48 -75 -73 -123 -40 -77 -87 -150 -105 -164 -8
-6 -40 -80 -34 -80 2 0 17 24 34 54 16 30 35 57 41 61 15 9 -16 -51 -46 -91
-13 -17 -24 -36 -24 -42 0 -6 -4 -14 -10 -17 l-10 -6 6 15 c3 9 4 16 1 16 -3
0 -20 -29 -36 -64 -17 -35 -56 -101 -86 -147 -30 -46 -55 -88 -55 -94 0 -5 11
8 25 30 13 22 24 36 24 30 0 -16 -45 -86 -52 -79 -3 3 -11 -4 -17 -16 l-12
-22 11 6 c6 4 11 2 11 -3 0 -6 -6 -11 -13 -11 -8 0 -26 -24 -41 -52 -31 -61
-39 -74 -84 -145 l-34 -52 8 -12 7 -12 -10 6 c-6 4 -17 0 -24 -9 l-13 -16 15
-10 14 -10 -18 6 -18 6 -20 -46 c-11 -25 -18 -52 -15 -60 l6 -15 -10 6 c-5 3
-14 -3 -19 -14 -16 -29 -13 -39 4 -17 19 25 19 15 0 -30 l-15 -35 -11 7 -11 7
7 -34 6 -34 -9 13 -9 14 -6 -21 -5 -21 9 6 c5 3 9 0 9 -5 0 -6 -5 -11 -11 -11
-13 0 -38 -30 -38 -45 -1 -5 8 1 19 15 23 29 24 25 9 -19 l-12 -33 -8 13 -8
13 -6 -16 c-4 -9 -5 -100 -3 -201 l3 -185 16 -18 c9 -11 20 -34 24 -53 l7 -34
10 14 9 14 -6 -23 -6 -22 18 -48 c9 -26 37 -83 60 -127 23 -44 50 -96 58 -115
9 -19 20 -42 25 -50 6 -8 15 -27 21 -42 6 -16 17 -28 24 -28 14 0 29 -32 30
-59 0 -8 6 -16 14 -19 l14 -5 -7 12 c-11 17 0 13 15 -6 l14 -17 -12 8 c-7 4
-13 4 -13 0 0 -13 42 -74 51 -74 6 0 8 -4 5 -9 -4 -5 5 -32 19 -59 14 -27 25
-54 25 -59 0 -5 18 -26 40 -48 22 -21 45 -55 51 -74 7 -20 20 -47 30 -60 11
-13 23 -41 29 -61 6 -21 18 -41 27 -44 l16 -6 -13 15 c-7 9 -10 19 -6 22 10
11 26 -19 21 -38 l-5 -15 24 -23 c13 -12 36 -51 51 -87 15 -35 31 -64 36 -64
5 0 9 -7 9 -16 0 -10 17 -37 38 -62 20 -25 53 -78 73 -116 20 -39 41 -70 47
-69 l10 2 -6 -21 -5 -21 13 8 13 8 -6 -10 c-4 -6 2 -29 13 -51 11 -23 20 -45
20 -50 0 -5 18 -29 41 -52 22 -23 46 -56 52 -73 5 -17 21 -47 34 -65 13 -19
23 -43 23 -54 0 -10 20 -40 44 -66 l44 -47 31 -68 c17 -38 35 -66 40 -63 l9 6
-5 -19 -5 -19 39 -44 c36 -39 113 -176 113 -200 0 -5 18 -30 40 -56 22 -25 61
-87 86 -138 25 -52 49 -96 54 -99 5 -3 16 -27 24 -53 l16 -49 36 -34 c20 -19
52 -67 71 -107 20 -40 38 -70 41 -67 6 6 42 -45 42 -60 0 -5 -9 4 -20 20 -11
17 -20 26 -20 21 0 -14 51 -86 61 -86 8 0 89 -156 89 -173 0 -5 17 -29 38 -51
22 -23 56 -77 76 -119 21 -42 42 -75 47 -71 l9 5 -6 -16 -7 -16 20 -27 c11
-15 25 -43 32 -63 11 -35 47 -77 65 -78 6 0 11 -6 12 -13 7 -32 31 -89 46
-105 8 -10 21 -27 27 -38 l13 -20 -6 18 -6 18 11 -7 11 -6 -6 -23 -6 -23 21
-26 c11 -14 25 -25 32 -23 6 1 11 -5 12 -13 0 -8 19 -50 43 -92 23 -42 42 -82
42 -88 0 -7 20 -35 44 -63 24 -29 64 -95 89 -147 25 -52 57 -106 72 -120 14
-14 45 -63 67 -110 22 -47 44 -92 49 -100 6 -8 15 -27 22 -43 12 -28 34 -39
23 -11 -12 32 11 4 32 -40 13 -25 27 -48 33 -51 5 -4 7 -10 4 -15 -7 -11 29
-72 38 -64 3 3 3 -2 1 -13 l-5 -18 26 -34 c14 -19 25 -41 25 -48 0 -7 20 -38
44 -67 24 -30 49 -70 56 -90 6 -20 15 -36 20 -36 4 0 13 -14 19 -31 6 -17 15
-28 20 -25 l9 6 -5 -19 -5 -19 35 -38 c19 -22 46 -62 61 -91 14 -28 30 -54 35
-57 5 -4 13 -21 17 -39 3 -17 25 -54 48 -82 23 -27 57 -80 76 -117 19 -37 38
-64 42 -62 4 3 5 -1 2 -9 -3 -8 5 -33 16 -56 21 -40 38 -57 26 -25 l-6 15 10
-6 c14 -8 43 -66 37 -72 -3 -2 -8 5 -12 16 -3 12 -11 21 -16 21 -15 0 -11 -10
18 -44 14 -17 31 -29 37 -28 6 2 8 1 5 -3 -8 -7 74 -169 83 -164 7 4 58 -59
58 -70 0 -3 -12 7 -25 22 -14 15 -25 23 -25 18 0 -6 15 -28 34 -49 19 -20 46
-63 61 -95 15 -31 31 -57 35 -57 5 0 12 -15 15 -33 4 -17 26 -54 50 -82 23
-27 48 -67 54 -87 7 -21 16 -38 21 -38 4 0 18 -24 30 -52 12 -29 35 -66 50
-83 16 -16 49 -70 74 -120 25 -49 50 -95 54 -101 5 -5 15 -28 22 -50 14 -44
68 -107 83 -97 l10 6 -7 -11 c-8 -13 28 -75 38 -65 4 4 4 0 1 -8 l-6 -16 24
-42 25 -43 4 14 5 13 17 -33 c10 -19 15 -37 11 -40 -3 -3 -8 4 -12 16 -3 12
-9 22 -14 22 -16 0 -10 -12 34 -64 24 -28 49 -68 56 -88 7 -21 17 -40 22 -44
6 -3 14 -17 20 -31 5 -13 13 -22 18 -19 l9 6 -5 -19 -5 -19 34 -38 c19 -22 43
-55 53 -74 10 -19 24 -46 32 -60 8 -14 21 -41 29 -60 9 -19 33 -55 53 -80 21
-25 41 -56 46 -69 4 -13 18 -39 31 -58 13 -20 24 -40 24 -45 0 -5 4 -6 10 -3
l10 6 -6 -14 c-2 -7 6 -33 19 -56 l25 -43 5 14 5 13 1 -16 c1 -9 12 -28 27
-44 14 -15 24 -29 22 -30 -5 -6 -34 19 -46 40 l-11 20 -1 -13 c0 -7 20 -34 44
-60 24 -26 49 -64 55 -84 7 -20 18 -42 26 -48 7 -6 17 -26 20 -43 l7 -32 38
-40 c38 -41 48 -56 99 -163 16 -34 47 -84 69 -110 22 -26 42 -57 46 -69 13
-41 58 -113 67 -108 l9 6 -6 -16 c-4 -8 -2 -21 4 -28 6 -6 18 -32 28 -57 l17
-45 99 -101 98 -101 0 -27 0 -27 38 -17 c20 -9 62 -35 92 -58 30 -22 71 -51
92 -63 l36 -21 4 11 4 11 27 -7 c15 -4 27 -12 27 -19 0 -6 23 -18 50 -28 28
-9 47 -12 44 -7 -3 5 0 9 5 9 6 0 11 -6 11 -14 l0 -14 73 -7 c39 -3 533 -5
1097 -3 l1025 3 35 22 c19 13 45 23 57 23 12 0 24 4 28 10 3 5 13 6 22 3 l16
-6 -6 10 -6 9 20 0 21 -1 46 54 c26 30 41 51 35 47 -18 -10 -16 2 3 22 l16 16
-4 130 -5 131 -16 30 c-25 46 -77 164 -77 174 0 5 -6 16 -14 23 -7 8 -29 43
-49 78 -20 36 -40 65 -45 65 -6 0 -14 4 -19 9 l-8 9 13 -7 c19 -11 14 2 -20
52 -17 25 -44 71 -60 101 -35 68 -69 124 -89 148 -9 10 -33 50 -54 88 -46 85
-107 177 -113 170 -3 -2 3 -15 12 -27 39 -54 76 -113 76 -122 0 -5 -11 5 -25
24 -14 19 -25 40 -25 47 0 7 -4 13 -8 13 -12 0 -44 59 -37 69 6 10 -66 153
-93 186 -10 11 -44 62 -76 113 -32 51 -63 99 -70 105 -11 13 -38 60 -64 112
-19 40 -74 127 -88 142 -7 7 -33 52 -59 100 -26 48 -63 110 -82 137 -19 27
-51 81 -70 120 -20 39 -45 82 -58 96 -12 14 -46 68 -75 120 -67 121 -132 222
-138 215 -3 -2 13 -31 35 -62 22 -32 43 -66 46 -76 l7 -18 -10 6 c-18 11 -91
145 -85 155 7 11 -61 132 -143 256 -134 205 -133 202 -165 269 -11 22 -22 42
-26 45 -11 9 -78 115 -105 166 -14 27 -46 81 -70 119 -41 63 -73 117 -196 325
-21 36 -43 70 -49 77 -6 7 -16 25 -23 40 -18 42 -90 154 -96 148 -3 -2 11 -28
31 -57 19 -29 38 -64 42 -78 3 -14 -15 10 -40 53 -25 42 -43 82 -40 87 6 10
-70 148 -122 220 -51 70 -123 185 -197 316 -22 38 -61 101 -88 141 -26 40 -48
75 -48 79 0 10 -79 144 -100 169 -9 11 -34 52 -55 90 -21 39 -53 94 -73 124
l-34 53 -10 -13 -10 -14 6 18 5 17 -38 73 c-21 39 -47 87 -57 104 -19 32 -34
43 -34 23 0 -5 4 -10 9 -10 11 0 56 -89 49 -96 -3 -2 -17 18 -32 46 -15 27
-32 52 -38 56 l-10 7 12 7 11 7 -57 104 c-32 57 -61 106 -64 109 -4 3 -34 48
-68 100 -34 52 -67 101 -73 108 -6 8 -34 55 -61 105 -28 51 -66 113 -84 139
-19 26 -52 83 -75 127 -22 44 -50 87 -60 97 l-20 18 7 -17 c3 -9 10 -17 14
-17 4 0 13 -13 19 -30 5 -16 8 -30 6 -30 -8 0 -47 72 -49 93 -3 23 -72 150
-139 255 -40 63 -116 189 -202 337 -64 110 -118 196 -198 314 -37 55 -77 120
-89 143 -20 40 -68 119 -107 178 -10 14 -41 67 -71 118 -29 51 -57 95 -63 99
-5 3 3 -16 19 -43 15 -26 23 -44 16 -40 -16 10 -53 82 -45 89 5 6 -54 117 -68
127 -3 3 -15 23 -26 45 -23 46 -154 264 -252 421 -18 28 -53 87 -79 131 -26
45 -86 140 -134 211 -47 72 -96 150 -107 174 -26 52 -61 110 -82 135 -9 10
-37 57 -63 105 -26 48 -52 91 -58 94 -6 4 2 -14 17 -40 15 -26 25 -49 23 -52
-3 -2 -17 18 -31 44 -15 27 -24 52 -20 55 3 4 -2 18 -12 33 l-17 27 -10 -14
-10 -14 6 18 6 19 -56 101 c-31 56 -58 104 -60 106 -2 2 -7 2 -10 -2 -3 -3 3
-16 14 -28 12 -12 26 -36 31 -53 l10 -31 -15 20 c-8 11 -26 37 -39 57 l-24 37
10 3 c11 4 -72 162 -130 248 -21 30 -53 82 -71 115 -18 33 -80 131 -137 218
-58 87 -118 186 -135 220 -34 70 -66 109 -81 100 l-10 -6 7 11 7 12 -58 105
c-32 57 -62 105 -67 105 -6 0 -5 -5 2 -12 13 -13 16 -28 5 -28 -5 0 -18 18
-31 40 -23 41 -20 54 5 23 8 -10 6 -2 -5 17 -11 19 -44 77 -73 128 -51 89 -70
112 -50 58 6 -14 8 -26 6 -26 -9 0 -45 64 -45 79 l0 13 18 -13 17 -14 -14 17
c-7 10 -17 16 -21 13 -4 -3 -13 2 -20 10 l-13 15 17 -6 16 -6 -42 78 c-23 44
-46 81 -50 82 -4 2 -8 9 -8 17 0 7 -7 18 -15 25 l-16 13 11 -29 11 -29 -15 15
c-8 8 -26 37 -40 64 l-27 50 27 -25 c29 -26 25 -13 -12 38 -13 17 -24 34 -24
37 0 12 -116 161 -125 161 -18 0 -57 33 -51 43 l6 10 -47 23 -48 24 -105 1
c-58 1 -134 -1 -170 -5z m520 -250 l-1 -16 -14 19 c-19 26 -19 42 0 26 8 -7
15 -20 15 -29z m-931 -188 c-27 -48 -33 -54 -24 -23 7 22 33 60 41 60 2 0 -6
-17 -17 -37z m1081 -63 c0 -8 -7 -2 -15 14 -19 36 -19 45 0 20 8 -10 14 -26
15 -34z m137 -227 c-4 -3 -7 0 -7 7 0 7 3 10 7 7 3 -4 3 -10 0 -14z m21 -38
c-3 -3 -9 2 -12 12 l-7 18 12 -12 c7 -7 10 -15 7 -18z m256 -411 l6 -17 -15
13 c-17 14 -19 20 -6 20 5 0 12 -7 15 -16z m162 -266 c9 -16 11 -27 5 -23 -6
3 -18 20 -27 37 -9 16 -11 27 -5 23 6 -3 18 -20 27 -37z m-2278 -63 c-6 -14
-13 -23 -15 -21 -5 5 15 46 22 46 3 0 -1 -11 -7 -25z m2362 -63 c16 -25 30
-49 30 -54 0 -14 -25 14 -44 47 -9 17 -24 41 -33 55 l-18 25 17 -13 c10 -8 31
-35 48 -60z m50 -76 c0 -2 7 -20 15 -40 8 -20 13 -36 10 -36 -2 0 -14 18 -25
40 l-20 40 10 0 c5 0 10 -2 10 -4z m130 -221 l11 -30 -24 25 c-12 14 -32 45
-44 70 l-22 45 34 -40 c19 -22 39 -53 45 -70z m24 -51 l6 -15 -10 6 c-6 3 -10
10 -10 16 0 14 7 11 14 -7z m43 -91 c-4 -3 -7 0 -7 7 0 7 3 10 7 7 3 -4 3 -10
0 -14z m-2730 -165 c-3 -7 -5 -2 -5 12 0 14 2 19 5 13 2 -7 2 -19 0 -25z
m2840 -5 c-4 -3 -7 0 -7 7 0 7 3 10 7 7 3 -4 3 -10 0 -14z m21 -38 c-3 -3 -9
2 -12 12 l-7 18 12 -12 c7 -7 10 -15 7 -18z m256 -411 l6 -15 -10 6 c-6 3 -10
10 -10 16 0 14 7 11 14 -7z m162 -266 c9 -16 11 -27 5 -23 -6 3 -18 20 -27 37
-9 16 -11 27 -5 23 6 -3 18 -20 27 -37z m94 -138 c11 -22 20 -42 20 -46 0 -10
-34 36 -54 71 -9 17 -24 41 -33 55 l-16 25 32 -33 c17 -19 40 -51 51 -72z
m-2973 33 c-4 -3 -7 0 -7 7 0 7 3 10 7 7 3 -4 3 -10 0 -14z m37 -38 l17 -26
-20 13 c-22 13 -36 38 -22 38 5 0 16 -11 25 -25z m2976 -59 c0 -2 7 -20 15
-40 8 -20 13 -36 10 -36 -2 0 -14 18 -25 40 l-20 40 10 0 c5 0 10 -2 10 -4z
m98 -162 c12 -17 26 -43 32 -58 l10 -27 -11 7 c-6 3 -20 26 -30 50 -11 24 -24
46 -29 49 -6 3 -15 16 -21 28 l-11 22 19 -20 c10 -11 28 -34 41 -51z m61 -124
l12 -25 -15 19 c-9 11 -16 24 -16 30 0 12 5 7 19 -24z m112 -167 c12 -24 20
-46 18 -48 -3 -2 -21 26 -42 63 l-38 66 20 -18 c11 -10 30 -39 42 -63z m36
-80 c-4 -3 -7 0 -7 7 0 7 3 10 7 7 3 -4 3 -10 0 -14z m21 -38 c-3 -3 -9 2 -12
12 l-7 18 12 -12 c7 -7 10 -15 7 -18z m-2818 -197 c0 -5 14 -31 31 -57 l31
-46 -26 25 c-14 14 -32 42 -41 63 l-16 39 10 -7 c6 -3 11 -11 11 -17z m3074
-214 l6 -15 -10 6 c-6 3 -10 10 -10 16 0 14 7 11 14 -7z m-2895 -89 l23 -40
-20 20 c-11 11 -23 31 -27 45 -9 31 -5 26 24 -25z m3067 -202 c-6 -6 -46 56
-46 72 0 5 12 -8 26 -28 14 -21 23 -41 20 -44z m80 -105 c13 -26 24 -50 24
-54 0 -12 -36 40 -59 85 l-23 45 17 -14 c9 -8 27 -35 41 -62z m-2988 44 c6
-18 -15 -14 -22 4 l-6 16 12 -4 c6 -2 14 -10 16 -16z m3046 -137 c9 -13 16
-30 16 -37 l-1 -13 -15 20 c-9 11 -20 28 -25 38 l-10 17 9 0 c6 0 17 -11 26
-25z m53 -100 c26 -32 54 -76 63 -99 l10 -27 -11 7 c-6 3 -20 26 -30 50 -11
24 -24 46 -29 49 -6 4 -17 21 -26 38 l-15 32 15 -20 c9 -11 19 -24 23 -30z
m90 -152 c-4 -3 -7 0 -7 7 0 7 3 10 7 7 3 -4 3 -10 0 -14z m23 -34 c0 -6 -4
-7 -10 -4 -5 3 -10 11 -10 16 0 6 5 7 10 4 6 -3 10 -11 10 -16z m78 -122 c16
-23 32 -51 36 -62 l7 -20 -15 15 c-19 20 -79 123 -66 115 5 -3 23 -25 38 -48z
m-2930 -69 l21 -37 -14 5 c-7 3 -18 19 -24 36 -19 53 -16 52 17 -4z m2979 -35
c-4 -3 -7 0 -7 7 0 7 3 10 7 7 3 -4 3 -10 0 -14z m278 -443 c3 -5 4 -10 1 -10
-3 0 -8 5 -11 10 -3 6 -4 10 -1 10 3 0 8 -4 11 -10z m-2950 -36 l17 -26 -13 4
c-11 4 -34 48 -25 48 2 0 11 -12 21 -26z m3110 -224 c8 -16 15 -32 15 -37 0
-10 -25 27 -33 50 -10 27 1 20 18 -13z m-2958 -37 c-4 -3 -10 -3 -14 0 -3 4 0
7 7 7 7 0 10 -3 7 -7z m3052 -99 c11 -13 57 -102 84 -159 27 -58 4 -30 -33 40
-17 33 -39 69 -49 80 -10 11 -28 40 -40 65 l-22 45 26 -30 c14 -16 30 -35 34
-41z m-2990 -9 l23 -40 -20 20 c-11 11 -23 31 -27 45 -9 31 -5 26 24 -25z
m166 -283 c-6 -7 -34 29 -34 43 0 6 9 -1 20 -14 11 -13 17 -26 14 -29z m3022
-59 c-4 -3 -7 0 -7 7 0 7 3 10 7 7 3 -4 3 -10 0 -14z m21 -38 c-3 -3 -9 2 -12
12 l-7 18 12 -12 c7 -7 10 -15 7 -18z m90 -128 c38 -63 42 -85 7 -37 -14 19
-25 38 -25 44 0 5 -10 20 -22 33 l-23 24 16 -6 c8 -3 30 -29 47 -58z m-2989
-22 c0 -5 -6 1 -14 15 -8 14 -14 30 -14 35 0 6 6 -1 14 -15 8 -14 14 -29 14
-35z m3161 -274 l0 -16 -20 33 c-25 41 -25 54 0 23 11 -13 20 -31 20 -40z
m145 -241 c3 -5 4 -10 1 -10 -3 0 -8 5 -11 10 -3 6 -4 10 -1 10 3 0 8 -4 11
-10z m165 -273 c0 -16 -18 3 -23 25 l-6 23 14 -19 c8 -11 15 -24 15 -29z
m-2951 -92 c0 -5 -6 1 -14 15 -8 14 -14 30 -14 35 0 6 6 -1 14 -15 8 -14 14
-29 14 -35z m3085 -110 c21 -42 36 -78 33 -81 -2 -3 -16 17 -29 43 -30 57 -55
102 -86 152 l-22 36 32 -37 c18 -20 50 -71 72 -113z m-2929 -142 l18 -28 -21
19 c-12 11 -22 23 -22 28 0 14 7 9 25 -19z m3082 -130 c-4 -3 -7 0 -7 7 0 7 3
10 7 7 3 -4 3 -10 0 -14z m21 -38 c-3 -3 -9 2 -12 12 l-7 18 12 -12 c7 -7 10
-15 7 -18z m71 -97 c8 -13 24 -39 35 -58 l20 -35 -22 19 c-12 10 -24 28 -28
40 -3 11 -13 29 -22 39 -8 9 -11 17 -6 17 5 0 16 -10 23 -22z m191 -327 l0
-16 -20 33 c-25 41 -25 54 0 23 11 -13 20 -31 20 -40z m27 -48 c-4 -3 -7 0 -7
7 0 7 3 10 7 7 3 -4 3 -10 0 -14z m-3010 -10 c-4 -3 -7 0 -7 7 0 7 3 10 7 7 3
-4 3 -10 0 -14z m3128 -183 c3 -5 4 -10 1 -10 -3 0 -8 5 -11 10 -3 6 -4 10 -1
10 3 0 8 -4 11 -10z m172 -271 l12 -31 -18 16 c-11 10 -21 26 -24 36 l-5 19
12 -5 c7 -3 17 -18 23 -35z m-3007 -40 c0 -6 -4 -7 -10 -4 -5 3 -10 11 -10 16
0 6 5 7 10 4 6 -3 10 -11 10 -16z m3123 -142 c49 -87 64 -128 25 -67 -41 63
-47 74 -69 115 -12 22 -29 49 -38 60 l-16 20 26 -23 c14 -12 47 -60 72 -105z
m171 -293 l6 -15 -10 6 c-6 3 -10 10 -10 16 0 14 7 11 14 -7z m-2997 -71 c-4
-3 -7 0 -7 7 0 7 3 10 7 7 3 -4 3 -10 0 -14z m3073 -51 c0 -5 9 -18 20 -30 11
-12 25 -34 31 -49 l10 -28 -26 29 c-14 16 -25 34 -25 39 0 6 -7 19 -17 29
l-16 18 11 0 c7 0 12 -4 12 -8z m-3011 -52 c3 -3 13 -14 21 -24 l15 -19 -27
17 c-16 10 -28 22 -28 26 0 5 -3 17 -6 27 l-6 18 13 -20 c7 -11 15 -22 18 -25z
m3088 -87 c-4 -3 -7 0 -7 7 0 7 3 10 7 7 3 -4 3 -10 0 -14z m78 -123 c3 -5 4
-10 1 -10 -3 0 -8 5 -11 10 -3 6 -4 10 -1 10 3 0 8 -4 11 -10z m44 -62 l22
-43 -20 25 c-12 14 -25 30 -31 37 -12 15 -13 23 -2 23 5 0 18 -19 31 -42z m28
-65 c-4 -3 -7 0 -7 7 0 7 3 10 7 7 3 -4 3 -10 0 -14z m-2923 -202 c-6 -6 -24
19 -24 34 1 6 7 1 15 -9 8 -11 12 -22 9 -25z m3050 3 l6 -15 -10 6 c-6 3 -10
10 -10 16 0 14 7 11 14 -7z m166 -268 c5 -14 7 -26 5 -26 -7 0 -45 63 -45 73
0 15 30 -21 40 -47z m97 -145 c8 -18 13 -35 11 -36 -2 -2 -23 27 -46 63 l-44
67 32 -30 c18 -16 39 -45 47 -64z m47 -87 c23 -50 14 -53 -12 -4 -11 22 -18
40 -13 40 4 0 15 -16 25 -36z m145 -254 l12 -25 -15 19 c-9 11 -16 24 -16 30
0 12 5 7 19 -24z m-2984 -119 l20 -24 -22 12 c-13 6 -23 19 -23 28 0 9 1 14 3
12 1 -2 11 -15 22 -28z m3065 4 l12 -15 -10 0 c-5 0 -12 7 -16 15 -3 8 -4 15
-2 15 2 0 9 -7 16 -15z m37 -66 l13 -34 -15 20 c-9 11 -21 28 -27 39 l-10 18
13 -4 c7 -2 19 -20 26 -39z m30 -66 c-4 -3 -7 0 -7 7 0 7 3 10 7 7 3 -4 3 -10
0 -14z m-2977 -123 l11 -21 -20 13 c-22 13 -28 28 -11 28 5 0 14 -9 20 -20z
m3101 -62 l10 -18 -9 0 c-5 0 -14 11 -20 25 -22 49 -11 44 19 -7z m-2924 -275
c-4 -3 -7 0 -7 7 0 7 3 10 7 7 3 -4 3 -10 0 -14z m24 -30 l14 -18 -17 14 c-10
7 -18 15 -18 17 0 8 8 3 21 -13z m220 -249 l13 -16 -18 3 c-11 2 -21 10 -24
17 -5 17 13 15 29 -4z m123 -88 c21 -14 32 -26 24 -26 -8 0 -32 16 -54 36 -21
20 -32 32 -24 26 8 -5 33 -21 54 -36z m86 -46 c0 -5 -4 -10 -10 -10 -5 0 -10
5 -10 10 0 6 5 10 10 10 6 0 10 -4 10 -10z" />
    <path d="M6120 9361 c0 -5 7 -15 17 -22 l16 -14 -12 23 c-12 23 -21 28 -21 13z" />
    <path d="M5013 8593 l-73 -4 0 -9 c0 -6 -6 -10 -13 -10 -7 0 -23 -9 -35 -20
-12 -11 -24 -20 -28 -20 -12 0 30 42 51 51 l20 8 -19 0 -19 1 -98 -96 -97 -96
-24 -47 c-13 -25 -36 -62 -53 -82 -32 -40 -99 -158 -93 -165 3 -2 20 26 38 62
19 36 47 80 63 97 16 18 37 48 47 68 22 42 107 139 123 139 6 0 -5 -15 -24
-34 -19 -19 -50 -60 -69 -91 -19 -31 -50 -76 -68 -101 -18 -24 -51 -79 -74
-122 -22 -42 -46 -84 -52 -92 -7 -8 -22 -35 -35 -60 -29 -55 -84 -148 -127
-215 -17 -27 -42 -70 -54 -95 -21 -42 -58 -99 -71 -110 -3 -3 -12 -18 -21 -35
-35 -68 -100 -180 -112 -195 -14 -15 -26 -37 -101 -175 -20 -38 -44 -77 -52
-85 l-15 -15 16 33 c9 17 12 32 7 32 -5 0 -14 -13 -19 -29 -6 -16 -29 -53 -51
-81 -23 -29 -41 -58 -41 -65 0 -6 -11 -29 -25 -49 -28 -42 -32 -55 -10 -32 9
8 29 41 45 73 29 56 80 126 80 110 0 -5 -13 -28 -30 -52 -16 -24 -30 -47 -30
-52 0 -5 -16 -33 -36 -63 -20 -30 -45 -72 -55 -92 -10 -20 -32 -57 -49 -81
-16 -25 -30 -48 -30 -52 0 -3 -11 -21 -24 -38 -14 -18 -33 -50 -43 -72 -10
-22 -37 -67 -59 -100 -22 -33 -58 -91 -79 -130 -22 -38 -54 -93 -72 -121 -18
-29 -60 -103 -94 -165 -34 -63 -79 -140 -101 -171 -21 -32 -41 -66 -45 -75 -4
-10 -24 -45 -45 -79 -21 -34 -38 -63 -38 -66 0 -3 -20 -36 -45 -72 -25 -37
-45 -73 -45 -80 0 -7 -8 -21 -18 -32 -10 -10 -29 -39 -43 -64 -14 -25 -43 -74
-64 -110 -21 -36 -67 -116 -102 -179 -35 -63 -69 -122 -77 -130 -7 -9 -26 -38
-41 -66 -54 -99 -79 -141 -127 -213 -26 -41 -48 -78 -48 -83 0 -5 -26 -51 -59
-101 -32 -51 -93 -156 -137 -233 -43 -77 -94 -165 -113 -195 -40 -63 -70 -113
-107 -185 -15 -27 -40 -66 -55 -87 -16 -20 -35 -49 -42 -65 -15 -35 -98 -176
-107 -183 -4 -3 -29 -45 -56 -95 -27 -49 -53 -97 -59 -106 -5 -9 -22 -38 -37
-65 -15 -27 -41 -69 -57 -94 -17 -25 -31 -50 -31 -56 0 -6 -9 -23 -21 -38 -12
-15 -38 -56 -58 -91 -20 -36 -63 -108 -95 -162 -87 -142 -179 -300 -214 -363
-17 -30 -35 -54 -41 -53 -6 2 -15 -6 -21 -17 l-11 -20 11 0 c5 0 10 5 10 12 0
6 3 9 6 5 3 -3 -15 -37 -40 -75 -25 -38 -46 -74 -47 -78 0 -5 -27 -52 -59
-104 -33 -52 -76 -124 -97 -160 -20 -36 -40 -67 -43 -70 -3 -3 -32 -52 -65
-110 -32 -58 -63 -111 -69 -119 -6 -7 -27 -43 -48 -80 -20 -36 -41 -65 -47
-64 -6 2 -16 -7 -22 -20 -7 -12 -25 -38 -41 -57 -15 -20 -49 -76 -74 -125 -25
-50 -60 -108 -78 -130 -18 -22 -54 -83 -80 -135 -26 -52 -53 -101 -59 -109
l-12 -14 -3 -178 -4 -178 19 -20 c11 -11 30 -40 42 -63 l24 -43 -30 30 c-16
17 -35 39 -41 50 l-11 20 -1 -18 0 -17 102 -101 c101 -100 150 -135 169 -124
5 4 8 1 7 -6 -2 -6 3 -14 11 -17 l14 -5 -6 10 -6 10 44 -10 c24 -6 42 -13 40
-18 -3 -4 2 -10 11 -13 24 -9 9145 -5 9174 4 l25 8 -25 2 -25 1 24 10 24 10 7
-12 7 -11 54 31 c30 16 77 54 104 83 28 29 38 42 23 29 -27 -23 -40 -17 -17 6
12 12 16 84 7 138 -3 17 -10 41 -17 54 l-13 23 13 -7 12 -8 -6 36 c-3 20 -11
42 -17 49 -7 7 -26 39 -43 70 -43 78 -149 230 -155 223 -3 -3 4 -15 15 -28 11
-12 24 -33 28 -47 l7 -25 -31 48 c-17 27 -29 53 -26 58 4 5 -3 22 -14 38 -12
16 -21 32 -21 36 0 9 -101 175 -107 175 -2 0 5 -15 16 -34 23 -36 27 -51 11
-41 -10 6 -50 78 -50 90 0 3 6 3 13 -2 l12 -7 -16 24 c-9 14 -22 35 -29 47 -8
11 -19 19 -26 16 l-13 -5 -20 40 c-11 22 -34 61 -51 85 -16 25 -30 48 -30 53
0 4 -12 23 -27 43 -50 64 -74 103 -71 113 4 10 129 -176 174 -259 27 -50 44
-66 44 -43 0 6 -4 10 -9 10 -5 0 -14 15 -21 33 -7 17 -24 46 -37 64 -12 17
-23 34 -23 37 0 3 -27 43 -59 88 -32 46 -79 120 -104 165 -51 93 -127 215
-172 277 -17 22 -49 70 -70 106 -22 36 -70 95 -106 132 l-66 67 -44 21 c-24
11 -62 31 -85 43 -56 32 -118 56 -151 58 -16 1 -48 -1 -73 -4 -25 -4 -38 -4
-30 0 l15 7 -50 12 c-27 7 -51 10 -52 6 -3 -8 -4426 -5 -4460 3 -13 3 -23 9
-23 13 0 4 242 6 537 5 296 -2 1302 -4 2236 -5 l1698 -3 -33 9 -33 8 -2190 2
-2190 1 -1 25 -2 25 37 55 c21 30 53 83 71 118 19 34 38 62 43 62 10 0 12 4
-35 -90 -21 -41 -49 -88 -63 -104 -35 -40 -31 -46 6 -10 17 16 51 70 74 120
24 49 61 112 82 140 22 27 54 80 72 119 19 38 52 93 73 122 51 67 130 221 122
235 l-7 11 10 -6 11 -7 35 46 c20 26 41 61 47 80 7 19 15 34 20 34 4 0 15 19
25 43 9 23 34 65 54 92 21 28 49 71 61 98 13 26 27 47 31 47 4 0 10 12 13 28
4 15 24 50 46 77 22 28 51 71 64 96 14 25 37 61 52 79 16 18 38 53 51 79 49
95 81 151 110 188 36 46 78 119 88 153 4 14 27 50 51 81 24 30 44 61 44 67 0
7 4 12 9 12 5 0 14 12 20 28 6 15 15 34 21 42 14 22 44 93 45 110 2 24 31 82
70 140 20 30 39 57 41 60 3 2 -7 -23 -22 -55 -14 -33 -39 -77 -55 -97 -35 -45
-38 -60 -5 -29 25 24 96 152 96 174 0 7 22 38 48 68 27 29 54 71 61 91 7 20
18 42 26 48 7 6 16 24 20 39 3 15 24 49 46 76 23 27 52 71 65 98 14 26 40 64
58 85 18 20 50 72 71 116 l37 78 -13 10 -14 9 15 -3 16 -3 35 40 c19 22 54 79
77 127 23 47 58 106 78 130 20 23 41 54 47 68 6 14 18 36 27 50 9 14 24 46 34
73 10 26 22 47 27 47 5 0 9 6 9 13 0 6 14 39 30 72 l30 59 0 137 0 136 -84
164 c-84 166 -202 353 -224 355 -25 3 -27 5 -15 12 l13 8 -36 55 c-19 29 -46
77 -59 104 -13 28 -42 75 -64 105 -23 30 -49 71 -60 91 -11 19 -28 42 -38 50
l-18 14 18 -25 c9 -14 24 -38 33 -54 l16 -28 -12 7 c-6 4 -22 24 -35 45 l-25
39 6 15 6 15 -32 45 c-17 26 -39 63 -48 84 -10 22 -35 64 -56 95 l-38 55 -17
-5 -16 -5 14 10 14 10 -30 43 c-16 24 -34 44 -40 44 -6 0 -15 3 -19 8 -4 4 -2
7 4 7 l12 0 -32 58 c-18 31 -35 59 -40 62 -4 3 -15 24 -24 45 -9 22 -36 68
-60 102 -24 34 -44 66 -44 72 0 6 -4 11 -10 11 -16 0 -12 -15 10 -40 11 -13
20 -25 20 -28 0 -11 -44 35 -66 69 -29 46 -124 138 -163 159 -17 8 -30 20 -30
25 0 12 -5 12 -98 8z m-175 -93 c-7 -11 -17 -20 -22 -20 -5 0 -1 9 9 20 10 11
20 20 22 20 2 0 -2 -9 -9 -20z m602 -282 c22 -45 33 -75 25 -68 -8 7 -15 16
-15 20 0 4 -18 38 -40 74 -22 36 -40 69 -40 72 0 4 7 1 15 -6 8 -7 33 -48 55
-92z m146 -230 c8 -16 13 -32 11 -34 -5 -5 -47 58 -47 70 0 14 21 -6 36 -36z
m87 -137 c15 -27 27 -52 27 -56 0 -12 -35 36 -54 73 -27 52 -2 37 27 -17z m67
-125 l0 -11 -10 15 c-6 8 -15 24 -21 35 l-10 20 20 -24 c12 -13 21 -28 21 -35z
m134 -212 l6 -15 -10 6 c-6 3 -10 10 -10 16 0 14 7 11 14 -7z m52 -64 c15 -22
25 -43 22 -46 -3 -3 -20 15 -37 40 -16 25 -26 46 -21 46 5 0 22 -18 36 -40z
m55 -101 c11 -23 16 -38 10 -35 -5 4 -17 20 -25 38 -17 34 -19 38 -11 38 2 0
14 -18 26 -41z m140 -221 c11 -21 18 -38 15 -38 -6 0 -66 96 -66 106 1 13 28
-24 51 -68z m92 -142 c18 -34 36 -70 40 -81 l7 -20 -15 19 c-8 11 -15 24 -15
29 0 6 -10 24 -23 41 -13 17 -34 49 -47 71 l-24 40 22 -19 c12 -10 37 -46 55
-80z m13 -850 c-21 -42 -53 -92 -72 -113 l-35 -38 23 40 c12 22 26 42 30 43 4
2 8 9 8 16 0 7 14 32 30 54 17 23 30 48 30 55 0 16 11 29 18 22 3 -2 -12 -38
-32 -79z m-150 -247 c-19 -41 -49 -90 -66 -109 l-31 -35 7 20 c4 11 20 40 36
64 16 23 40 66 54 93 39 78 39 49 0 -33z m-149 -251 c-20 -40 -54 -93 -76
-118 l-41 -45 13 25 c7 14 26 45 42 70 29 44 41 66 72 123 8 16 17 26 20 24 3
-3 -11 -39 -30 -79z m-142 -225 c-22 -34 -55 -67 -55 -55 0 5 9 17 20 27 11
10 20 23 20 30 0 13 22 37 28 30 3 -2 -3 -17 -13 -32z m-99 -149 c-4 -9 -9
-15 -11 -12 -3 3 -3 13 1 22 4 9 9 15 11 12 3 -3 3 -13 -1 -22z m-33 -61 c-20
-45 -63 -106 -70 -100 -2 3 6 20 19 40 13 19 31 49 40 66 24 43 31 39 11 -6z
m-298 -495 c-41 -79 -89 -151 -93 -139 -2 5 16 42 40 81 24 39 49 82 56 96 8
14 16 23 19 20 3 -3 -7 -29 -22 -58z m-163 -269 c-43 -84 -93 -158 -106 -159
-5 0 -3 8 5 18 8 9 21 31 30 47 43 81 101 176 105 172 3 -2 -13 -37 -34 -78z
m-126 -206 c-8 -15 -25 -48 -36 -73 -12 -24 -36 -62 -54 -85 -18 -22 -43 -58
-56 -80 -24 -41 -70 -101 -70 -91 0 11 70 124 85 136 8 7 15 17 15 22 0 5 13
28 28 51 16 23 31 50 35 59 10 29 58 100 64 95 2 -3 -2 -18 -11 -34z m-297
-479 c-22 -43 -47 -86 -55 -94 l-14 -14 0 11 c0 7 5 15 10 18 6 4 17 22 25 42
16 37 68 123 73 118 1 -1 -16 -37 -39 -81z m-109 -180 c0 -3 -8 -18 -19 -32
-10 -15 -28 -47 -40 -72 -12 -25 -33 -58 -47 -75 l-25 -30 8 21 c14 35 108
193 116 194 4 0 7 -3 7 -6z m-194 -325 c-41 -86 -85 -151 -106 -156 l-15 -4
15 13 c8 7 22 27 31 43 32 63 64 120 69 125 3 3 11 18 18 34 7 16 15 26 18 23
3 -2 -11 -38 -30 -78z m-155 -261 c-22 -46 -56 -101 -76 -122 -39 -45 -47 -39
-12 8 13 17 42 65 63 106 50 95 55 102 61 96 3 -2 -13 -42 -36 -88z m4439
-540 l15 -9 -35 7 c-19 3 -42 10 -50 15 l-15 9 35 -7 c19 -3 42 -10 50 -15z
m345 -239 c11 -16 1 -19 -13 -3 l-13 14 10 0 c5 0 13 -5 16 -11z m142 -209
c15 -25 39 -63 55 -84 27 -38 37 -62 19 -52 -5 3 -28 38 -51 78 -24 40 -46 75
-50 78 -12 10 -50 68 -50 77 1 12 47 -45 77 -97z m126 -199 l18 -31 -11 0
c-10 0 -50 58 -50 74 0 14 23 -10 43 -43z m36 -71 l12 -25 -15 19 c-9 11 -16
24 -16 30 0 12 5 7 19 -24z m-8733 -238 c-9 -17 -22 -36 -30 -44 -8 -8 -27
-39 -44 -69 -81 -147 -97 -176 -115 -194 -10 -11 -46 -76 -80 -145 -34 -68
-63 -118 -65 -110 -3 20 96 218 135 266 30 38 75 116 116 199 11 22 35 57 53
78 19 20 34 42 34 49 0 6 3 9 6 6 3 -4 -2 -20 -10 -36z m8992 -177 c6 -14 10
-25 8 -25 -2 0 -11 11 -20 25 -9 14 -13 25 -8 25 5 0 14 -11 20 -25z m118
-192 c-7 -7 -26 7 -26 19 l0 10 15 -12 c9 -7 13 -15 11 -17z m233 -363 c23
-44 41 -83 41 -86 0 -14 -30 19 -36 39 -4 12 -22 48 -40 80 -19 32 -34 61 -34
64 0 3 6 0 14 -6 8 -6 32 -47 55 -91z m-9588 -307 l14 -18 -17 14 c-17 13 -22
21 -14 21 2 0 10 -8 17 -17z" />
    <path d="M5221 8524 c32 -32 69 -72 83 -89 14 -16 26 -27 26 -23 0 13 -99 126
-132 149 l-33 23 56 -60z" />
    <path d="M4500 8048 l-12 -23 18 17 c10 10 15 20 12 24 -4 3 -12 -5 -18 -18z" />
    <path d="M4470 8001 c-15 -30 -32 -77 -24 -68 9 9 44 87 39 87 -2 0 -9 -9 -15
-19z" />
    <path d="M4395 7874 c-19 -26 -35 -53 -35 -60 0 -8 -4 -14 -9 -14 -10 0 -24
-30 -17 -37 3 -3 19 20 36 51 18 31 36 59 41 62 11 6 32 44 25 44 -3 0 -21
-21 -41 -46z" />
    <path d="M4315 7739 c-4 -6 -5 -12 -2 -15 2 -3 7 2 10 11 7 17 1 20 -8 4z" />
    <path d="M4285 7680 c-8 -16 -30 -46 -48 -67 l-32 -36 21 11 c21 11 84 97 84
114 0 16 -10 8 -25 -22z" />
    <path d="M4196 7554 c-4 -9 -4 -19 -1 -22 2 -3 7 3 11 12 4 9 4 19 1 22 -2 3
-7 -3 -11 -12z" />
    <path d="M4155 7468 c-16 -29 -40 -69 -55 -88 -39 -51 -46 -69 -17 -40 25 24
111 170 104 177 -2 2 -16 -21 -32 -49z" />
    <path d="M4031 7269 c-13 -22 -21 -42 -19 -45 3 -2 15 14 27 37 13 22 21 42
19 45 -3 2 -15 -14 -27 -37z" />
    <path d="M3980 7170 c-6 -12 -9 -24 -7 -27 3 -2 11 5 17 17 6 12 9 24 7 27 -3
2 -11 -5 -17 -17z" />
    <path d="M3749 6778 c-50 -78 -53 -87 -19 -48 31 35 63 90 57 97 -2 2 -19 -20
-38 -49z" />
    <path d="M3682 6670 c-7 -11 -8 -20 -3 -20 9 0 24 30 18 36 -1 2 -8 -6 -15
-16z" />
    <path d="M3635 6588 c-16 -29 -44 -74 -62 -100 -34 -49 -33 -68 1 -21 26 36
97 165 93 170 -2 2 -17 -21 -32 -49z" />
    <path d="M3507 6381 c-37 -68 -34 -78 4 -13 17 30 29 56 26 58 -2 2 -16 -18
-30 -45z" />
    <path d="M3460 6290 c-6 -11 -8 -20 -6 -20 3 0 10 9 16 20 6 11 8 20 6 20 -3
0 -10 -9 -16 -20z" />
    <path d="M3411 6221 c-17 -21 -35 -51 -41 -67 -6 -16 -9 -26 -6 -23 11 10 86
129 82 129 -3 0 -18 -17 -35 -39z" />
    <path d="M3337 6093 c-13 -22 -37 -87 -28 -78 10 11 42 85 36 85 -2 0 -6 -3
-8 -7z" />
    <path d="M3251 5933 c-23 -38 -48 -79 -57 -93 l-16 -25 31 35 c28 31 97 150
87 150 -2 0 -22 -30 -45 -67z" />
    <path d="M3160 5782 c-21 -42 -22 -42 -16 -42 8 0 38 61 33 66 -2 2 -10 -8
-17 -24z" />
    <path d="M3114 5703 c-10 -16 -34 -54 -55 -85 -21 -32 -35 -58 -31 -58 4 0 21
21 38 48 47 71 76 122 70 122 -3 0 -13 -12 -22 -27z" />
    <path d="M3006 5534 c-4 -9 -4 -19 -1 -22 2 -3 7 3 11 12 4 9 4 19 1 22 -2 3
-7 -3 -11 -12z" />
    <path d="M2974 5475 c-9 -14 -15 -28 -12 -30 2 -2 12 9 22 25 21 36 13 40 -10
5z" />
    <path d="M2940 5410 c-6 -11 -8 -20 -6 -20 3 0 10 9 16 20 6 11 8 20 6 20 -3
0 -10 -9 -16 -20z" />
    <path d="M2908 5363 c-9 -10 -21 -29 -28 -42 l-12 -23 10 6 c10 6 54 76 48 76
-1 0 -10 -8 -18 -17z" />
    <path d="M2846 5260 c-9 -17 -13 -30 -8 -30 9 0 35 50 29 56 -2 2 -11 -10 -21
-26z" />
    <path d="M2817 5213 c-13 -22 -37 -87 -28 -78 10 11 42 85 36 85 -2 0 -6 -3
-8 -7z" />
    <path d="M2750 5079 c-12 -23 -20 -43 -18 -45 3 -2 14 17 26 41 27 56 20 60
-8 4z" />
    <path d="M8670 5062 c0 -7 14 -26 30 -44 l31 -33 -26 40 c-32 48 -35 52 -35
37z" />
    <path d="M2700 4998 c-23 -24 -44 -58 -36 -58 2 0 19 18 36 40 34 43 34 54 0
18z" />
    <path d="M2640 4902 c-21 -42 -22 -42 -16 -42 8 0 38 61 33 66 -2 2 -10 -8
-17 -24z" />
    <path d="M2605 4839 c-4 -6 -5 -12 -2 -15 2 -3 7 2 10 11 7 17 1 20 -8 4z" />
    <path d="M2569 4778 c-46 -62 -68 -98 -61 -98 12 1 101 130 89 130 -2 0 -14
-15 -28 -32z" />
    <path d="M2486 4654 c-4 -9 -4 -19 -1 -22 2 -3 7 3 11 12 4 9 4 19 1 22 -2 3
-7 -3 -11 -12z" />
    <path d="M2454 4588 c-9 -18 -24 -44 -33 -58 l-16 -24 13 8 c13 8 66 106 57
106 -2 0 -12 -15 -21 -32z" />
    <path d="M2388 4483 c-9 -10 -21 -29 -28 -42 l-12 -23 10 6 c10 6 54 76 48 76
-1 0 -10 -8 -18 -17z" />
    <path d="M2314 4358 c-32 -59 -55 -108 -49 -108 6 0 87 152 82 156 -2 2 -17
-20 -33 -48z" />
    <path d="M2227 4192 c-13 -27 -38 -69 -56 -93 l-33 -44 39 43 c22 24 49 65 60
93 12 27 19 49 17 49 -3 0 -15 -22 -27 -48z" />
    <path d="M2120 4022 c-21 -42 -22 -42 -16 -42 8 0 38 61 33 66 -2 2 -10 -8
-17 -24z" />
    <path d="M2085 3959 c-4 -6 -5 -12 -2 -15 2 -3 7 2 10 11 7 17 1 20 -8 4z" />
    <path d="M2056 3901 c-9 -17 -30 -47 -47 -66 -32 -36 -32 -48 0 -17 25 23 74
103 67 109 -2 3 -12 -9 -20 -26z" />
    <path d="M1966 3774 c-4 -9 -4 -19 -1 -22 2 -3 7 3 11 12 4 9 4 19 1 22 -2 3
-7 -3 -11 -12z" />
    <path d="M1921 3682 c-16 -32 -37 -64 -46 -72 -9 -7 -23 -27 -31 -44 l-15 -31
31 35 c29 33 106 170 95 170 -2 0 -18 -26 -34 -58z" />
    <path d="M1797 3481 c-37 -68 -33 -78 4 -13 17 29 29 55 27 58 -3 2 -17 -18
-31 -45z" />
    <path d="M1726 3347 c-20 -35 -36 -68 -36 -73 1 -5 8 5 16 21 9 17 28 47 42
68 14 20 22 40 19 43 -3 3 -21 -23 -41 -59z" />
    <path d="M1653 3223 c-16 -21 -40 -58 -52 -83 l-23 -45 21 19 c12 11 21 25 21
31 0 7 16 36 35 64 20 28 33 51 31 51 -2 0 -17 -17 -33 -37z" />
    <path d="M1565 3079 c-4 -6 -5 -12 -2 -15 2 -3 7 2 10 11 7 17 1 20 -8 4z" />
    <path d="M1519 2998 c-18 -29 -38 -60 -43 -68 l-10 -15 17 13 c21 18 81 111
75 117 -3 3 -20 -18 -39 -47z" />
    <path d="M1446 2894 c-9 -24 -7 -28 9 -14 17 14 20 30 6 30 -5 0 -12 -7 -15
-16z" />
    <path d="M1404 2809 c-14 -28 -41 -73 -60 -100 -19 -27 -31 -49 -27 -49 16 1
134 200 118 200 -2 0 -16 -23 -31 -51z" />
    <path d="M1261 2569 c-23 -45 -40 -83 -37 -86 2 -2 23 33 45 78 23 45 40 84
37 86 -2 2 -22 -33 -45 -78z" />
    <path d="M1205 2459 c-4 -6 -5 -12 -2 -15 2 -3 7 2 10 11 7 17 1 20 -8 4z" />
    <path d="M1131 2341 c-17 -21 -35 -51 -41 -66 -10 -25 -79 -143 -127 -215
l-17 -25 22 20 c22 21 132 199 132 214 0 5 16 32 35 60 20 28 33 51 31 51 -2
0 -18 -17 -35 -39z" />
    <path d="M900 1952 c-25 -42 -59 -98 -77 -124 -18 -27 -30 -48 -26 -48 13 0
158 238 151 246 -3 2 -24 -31 -48 -74z" />
    <path d="M780 1756 c0 -8 -4 -16 -9 -18 -11 -4 -73 -130 -66 -136 2 -3 16 19
30 49 14 30 35 69 46 87 l21 32 -11 0 c-6 0 -11 -6 -11 -14z" />
    <path d="M10099 535 c5 -17 12 -39 15 -50 3 -11 3 -2 1 19 -2 22 -9 44 -15 50
l-11 11 10 -30z" />
    <path d="M648 273 c7 -3 16 -2 19 1 4 3 -2 6 -13 5 l-19 -1 13 -5z" />
  </g>
</svg>