<!-- <svg width="83" height="20" viewBox="0 0 83 20" fill="none" xmlns="http://www.w3.org/2000/svg">
<g clip-path="url(#clip0_28_374)">
<path d="M19.338 18.332H14.771L13.371 14.963H5.764L4.491 18.332H0L6.861 1.315H11.777L19.338 18.332ZM9.382 5.381L6.882 11.993H12.122L9.382 5.381ZM35.925 1.315H39.618V18.332H35.376V7.7L30.785 13.039H30.136L25.545 7.7V18.332H21.3V1.315H25L30.46 7.628L35.925 1.315ZM50.367 1.315C56.58 1.315 59.773 5.182 59.773 9.848C59.773 14.738 56.679 18.332 49.893 18.332H42.856V1.315H50.367ZM47.1 15.213H49.869C54.136 15.213 55.408 12.313 55.408 9.822C55.408 6.902 53.836 4.433 49.819 4.433H47.1V15.213ZM68.212 5.35L62.863 0H82.336V19.474L76.987 14.125V5.35H68.212ZM68.206 6.422L62.7 11.929V19.638H70.408L75.915 14.131H68.206V6.422Z" fill="#6A7A99"/>
</g>
<defs>
<clipPath id="clip0_28_374">
<rect width="82.336" height="19.638" fill="white"/>
</clipPath>
</defs>
</svg> -->

<svg width="73" height="73" viewBox="0 0 1336.000000 1347.000000" xmlns="http://www.w3.org/2000/svg">
  <g transform="translate(0.000000,1347.000000) scale(0.100000,-0.100000)" fill="#6A7A99" stroke="none">
    <path d="M1350 12469 c-140 -4 -307 -13 -370 -19 -63 -6 -145 -12 -182 -12
l-68 1 0 -14 c0 -7 12 -18 28 -23 l27 -10 -22 -1 c-12 -1 -29 -8 -37 -17 l-16
-15 6 -41 7 -40 -14 -9 -14 -8 0 -2667 0 -2667 13 -5 12 -4 0 -39 c0 -21 -4
-39 -10 -39 l-10 0 0 -60 0 -60 10 0 10 0 0 -50 0 -50 -10 0 -10 0 0 -65 0
-65 10 0 10 0 0 -45 0 -45 -11 0 -10 0 4 -622 4 -623 13 -223 c8 -122 18 -222
22 -222 4 0 8 -6 8 -14 0 -14 29 -29 46 -24 5 1 32 -3 59 -10 97 -24 575 -34
1960 -42 l1400 -8 154 -11 155 -11 19 -19 19 -19 -12 -85 -13 -84 8 -29 c4
-16 11 -778 16 -1694 5 -916 10 -1685 13 -1710 2 -25 8 -61 13 -80 l9 -35 55
-1 c29 0 255 -1 501 -2 l446 -2 -5 -18 -4 -19 398 -6 c514 -9 5682 -9 5831 0
l112 6 0 13 c0 7 -10 15 -22 17 l-23 4 28 2 27 1 0 -15 0 -15 25 0 25 0 0 15
c0 8 7 15 15 15 8 0 15 -7 15 -15 l0 -15 153 0 154 0 17 19 18 19 -4 24 -3 23
-17 3 -18 3 0 -25 c0 -14 -5 -26 -11 -26 l-11 0 6 16 c3 9 6 22 6 30 0 8 6 14
14 14 l13 0 6 43 c4 23 12 62 18 87 l11 45 2 2285 c0 1257 -1 2875 -4 3595
l-6 1310 -14 123 -13 123 -21 -3 -21 -3 -6 -30 -6 -30 -4 30 -4 30 -45 6 -45
6 77 1 77 2 6 19 c8 25 -4 51 -24 53 -9 0 -36 3 -61 5 -25 2 -870 4 -1877 3
l-1833 -1 -9 23 -10 23 -11 1055 c-10 942 -30 2482 -34 2664 l-2 68 -19 15
-20 14 -55 0 c-30 0 -451 3 -935 8 -1087 10 -5756 11 -6105 0z m7070 -76 l0
-27 -16 16 c-9 9 -13 21 -10 27 13 20 26 11 26 -16z m-1595 -3388 c77 -3 169
-12 205 -20 36 -7 90 -19 120 -25 79 -17 229 -66 345 -113 93 -38 195 -88 305
-151 25 -14 63 -35 85 -47 22 -12 56 -35 76 -50 20 -16 40 -29 45 -29 11 0 54
-41 54 -52 0 -4 -11 -8 -24 -8 l-24 0 -16 -40 -16 -41 -25 -9 c-14 -5 -25 -16
-25 -25 l0 -15 24 -6 c14 -3 30 -3 35 1 6 3 11 1 11 -4 0 -6 -6 -11 -12 -12
-28 -3 -64 3 -73 12 -5 5 -19 9 -31 9 l-23 0 -6 -20 c-3 -11 -3 -24 0 -30 3
-5 0 -10 -8 -10 l-15 0 5 19 c6 24 -11 35 -43 27 l-25 -7 3 -22 3 -22 -165 -6
c-91 -3 -177 -7 -192 -8 l-28 -1 0 -14 c0 -8 7 -17 16 -20 8 -3 205 -5 437 -5
232 1 430 -2 440 -6 10 -4 47 -5 82 -2 l63 6 17 -12 17 -13 5 -64 c3 -36 7
-841 10 -1790 l4 -1725 -13 -24 c-7 -13 -29 -31 -48 -39 l-35 -15 -1772 -5
-1773 -5 -24 16 -25 17 0 517 c-1 285 -4 650 -8 811 l-6 292 -14 0 -13 0 -1
-162 c-2 -206 -15 -557 -17 -460 l-2 72 -14 0 -13 0 -6 -37 c-4 -21 -9 -94
-13 -163 -4 -69 -9 -119 -11 -112 -3 6 -11 12 -18 12 l-13 0 -6 -34 -7 -34
-25 -6 -26 -7 5 -33 5 -33 -34 16 -34 15 0 18 0 18 -20 0 -20 0 0 -14 c0 -8 4
-17 9 -20 5 -3 7 -16 4 -27 l-6 -22 -18 24 c-10 13 -19 32 -19 42 l0 17 -17 0
c-21 -1 -83 -54 -84 -72 0 -7 -6 -2 -12 12 -6 14 -17 31 -24 38 -7 7 -13 20
-13 28 0 8 -22 60 -49 117 -26 56 -60 136 -74 177 -35 102 -86 298 -104 395
l-15 80 -5 310 -5 310 17 120 c20 148 29 193 67 320 29 101 41 135 63 190 7
17 23 55 35 85 37 94 122 263 150 300 15 19 43 64 62 100 44 79 152 225 222
300 28 31 67 73 86 95 89 100 368 336 451 382 19 10 59 34 89 53 86 54 92 58
140 81 125 60 209 98 250 114 25 9 56 22 70 27 34 14 168 58 205 68 17 4 64
17 105 28 135 36 456 73 570 66 30 -2 118 -6 195 -9z m1285 -510 l12 -15 -21
0 -21 0 -6 -24 c-3 -14 -12 -27 -19 -30 l-13 -5 5 20 c3 11 9 22 14 25 5 3 9
14 9 25 l0 19 14 0 c7 0 19 -7 26 -15z m45 -45 c3 -5 4 -10 1 -10 -3 0 -8 5
-11 10 -3 6 -4 10 -1 10 3 0 8 -4 11 -10z m-125 -44 c0 -3 -5 -8 -12 -12 l-11
-7 7 11 c7 12 16 16 16 8z m-3293 -2923 c-4 -3 -7 0 -7 7 0 7 3 10 7 7 3 -4 3
-10 0 -14z m-332 -273 c3 -5 4 -10 1 -10 -3 0 -8 5 -11 10 -3 6 -4 10 -1 10 3
0 8 -4 11 -10z m35 -46 c0 -8 -4 -14 -10 -14 -5 0 -10 9 -10 21 l0 20 10 -6
c6 -3 10 -13 10 -21z m-30 -18 c0 -3 -4 -8 -10 -11 -5 -3 -10 -1 -10 4 0 6 5
11 10 11 6 0 10 -2 10 -4z m57 -38 l-5 -13 -1 19 c-1 11 2 17 5 13 3 -3 4 -12
1 -19z m-30 -35 c-4 -3 -7 0 -7 7 0 7 3 10 7 7 3 -4 3 -10 0 -14z m1250 -4249
c-3 -3 -12 -4 -19 -1 l-13 5 19 1 c11 1 17 -2 13 -5z m1820 -1 c-4 -3 -10 -3
-14 0 -3 4 0 7 7 7 7 0 10 -3 7 -7z m230 1 c-3 -3 -12 -4 -19 -1 l-13 5 19 1
c11 1 17 -2 13 -5z m80 0 c-3 -3 -12 -4 -19 -1 l-13 5 19 1 c11 1 17 -2 13 -5z
m140 0 c-3 -3 -12 -4 -19 -1 l-13 5 19 1 c11 1 17 -2 13 -5z m76 -1 c-7 -2
-19 -2 -25 0 -7 3 -2 5 12 5 14 0 19 -2 13 -5z m150 0 c-7 -2 -19 -2 -25 0 -7
3 -2 5 12 5 14 0 19 -2 13 -5z m84 1 c-3 -3 -12 -4 -19 -1 l-13 5 19 1 c11 1
17 -2 13 -5z m190 -1 c-20 -2 -52 -2 -70 0 -17 2 0 4 38 4 39 0 53 -2 32 -4z
m231 0 c-21 -2 -55 -2 -75 0 -21 2 -4 4 37 4 41 0 58 -2 38 -4z m2060 0 c-362
-2 -954 -2 -1315 0 -362 1 -66 2 657 2 723 0 1019 -1 658 -2z m725 0 c-7 -2
-21 -2 -30 0 l-18 5 30 0 c17 0 24 -2 18 -5z m120 0 c-7 -2 -19 -2 -25 0 -7 3
-2 5 12 5 14 0 19 -2 13 -5z m210 0 c-7 -2 -21 -2 -30 0 l-18 5 30 0 c17 0 24
-2 18 -5z" />
    <path d="M7340 8285 l0 -15 20 0 20 0 0 15 0 15 -20 0 -20 0 0 -15z" />
    <path d="M7355 8140 c-104 -4 -400 -11 -657 -15 l-468 -8 0 -12 0 -12 203 -6
c111 -4 414 -7 672 -7 483 0 575 -3 683 -22 l62 -10 0 -31 c0 -17 6 -38 14
-46 l15 -16 -9 -35 -8 -35 -1 28 -1 27 -20 0 -20 0 0 -34 0 -35 28 -13 27 -14
-3 -23 -2 -24 25 -25 c14 -13 25 -30 26 -36 3 -41 -4 -123 -12 -138 -5 -10
-10 -53 -11 -95 l-2 -78 -23 -23 -23 -23 0 -45 0 -45 22 -8 22 -8 -27 -17 -26
-18 -6 -46 c-3 -26 -10 -55 -16 -64 -5 -10 -9 -23 -9 -29 0 -7 -8 -18 -17 -25
l-18 -13 12 -19 12 -20 -19 -17 -18 -17 -7 -50 c-8 -54 -27 -83 -60 -90 l-20
-3 -3 -23 c-2 -13 -10 -26 -18 -29 l-14 -5 0 -32 0 -33 -25 -23 c-14 -13 -25
-31 -25 -41 0 -9 -7 -22 -15 -29 -8 -7 -15 -18 -15 -25 0 -7 -7 -18 -15 -25
l-15 -12 0 -50 0 -49 -32 -15 c-67 -32 -78 -39 -78 -51 l0 -13 24 0 c31 0 40
-14 22 -32 -8 -8 -15 -23 -18 -34 l-3 -19 -37 -3 -37 -3 -17 -40 c-10 -21 -24
-39 -31 -39 -7 0 -13 -7 -13 -15 l0 -15 -30 -7 -31 -6 -12 -21 c-7 -11 -12
-39 -12 -61 l0 -40 -20 -3 -21 -3 -11 -29 -11 -28 -23 -4 -23 -3 -7 -28 c-7
-27 -44 -66 -64 -67 -5 0 -25 -14 -44 -30 -18 -17 -40 -30 -47 -30 l-14 0 0
-27 c-1 -36 -21 -63 -48 -63 -11 0 -24 -4 -27 -10 -3 -5 -30 -10 -58 -10 l-52
0 -14 -31 -14 -32 10 -17 11 -16 -19 -12 c-10 -7 -24 -12 -31 -12 -7 0 -25
-11 -40 -25 -15 -14 -36 -25 -48 -25 l-20 0 0 -15 0 -15 -19 0 c-11 0 -26 -7
-35 -15 -8 -8 -21 -15 -29 -15 -8 0 -35 -20 -60 -44 l-45 -45 -19 5 -19 5 -34
-30 -35 -30 -22 6 -23 5 0 -18 0 -19 -48 3 -47 4 -23 -31 c-22 -30 -52 -42
-52 -21 0 6 -13 10 -30 10 l-30 0 0 -30 0 -30 -20 0 c-11 0 -36 -9 -56 -20
l-36 -21 -131 -3 -131 -4 -4 -11 -4 -11 -55 0 -54 0 -15 14 -14 15 -54 -6 -54
-6 -28 16 c-16 8 -53 20 -82 26 l-54 11 -19 23 -18 22 -1 33 0 33 -15 5 c-8 4
-22 1 -29 -5 l-14 -12 -7 11 c-3 5 -15 10 -25 10 l-19 0 -3 -22 c-2 -12 -9
-23 -15 -26 l-13 -4 0 36 0 36 -23 9 -23 9 -2 128 c-2 70 -5 131 -8 136 -3 4
-12 8 -20 8 l-14 0 0 -177 c0 -97 -2 -174 -4 -172 -4 4 -15 676 -16 922 l0
147 -14 0 -13 0 -6 -72 c-4 -40 -9 -404 -12 -808 l-6 -735 8 -45 8 -45 75 -7
c62 -5 2887 -9 3263 -5 l118 2 9 15 10 15 0 1716 0 1715 -12 12 -12 12 -406
-2 c-223 -1 -490 -4 -595 -8z" />
    <path d="M4910 6455 c0 -8 7 -15 15 -15 8 0 15 7 15 15 0 8 -7 15 -15 15 -8 0
-15 -7 -15 -15z" />
    <path d="M4330 5281 l0 -21 21 0 20 0 -3 17 c-2 10 -11 19 -21 21 l-17 3 0
-20z" />
  </g>
  <g transform="translate(0.000000,1347.000000) scale(0.100000,-0.100000)" fill="#F5F7FE" stroke="none">
    <path d="M0 6735 l0 -6735 6680 0 6680 0 0 6735 0 6735 -6680 0 -6680 0 0
-6735z m8086 5729 l350 -6 23 -18 23 -17 9 -454 c4 -250 13 -890 18 -1424 16
-1520 21 -1939 25 -1942 2 -2 590 -3 1307 -1 1510 3 2209 2 2363 -6 l109 -5
15 -14 14 -14 3 -64 c14 -270 24 -1669 29 -3894 l6 -2620 -10 -395 c-5 -217
-12 -473 -15 -568 l-4 -172 -15 -22 -15 -21 -118 -11 -118 -11 -3445 0 -3445
0 -275 14 -275 13 -32 19 c-17 11 -34 26 -37 35 -3 9 -6 624 -6 1367 l0 1352
-10 280 c-6 154 -12 377 -13 496 -2 118 -7 220 -11 227 -3 6 -19 11 -34 10
-15 0 -70 3 -122 6 -52 4 -810 11 -1685 16 l-1590 8 -70 11 c-38 5 -107 10
-152 10 l-82 1 -34 20 -35 21 -5 52 c-3 28 -10 97 -15 152 l-10 100 -4 3690
-3 3690 15 30 15 30 135 6 c74 3 151 10 170 14 19 4 298 11 620 14 698 8 5934
3 6436 -5z m451 -101 c-3 -10 -5 -2 -5 17 0 19 2 27 5 18 2 -10 2 -26 0 -35z
m10 -266 c-2 -23 -3 -1 -3 48 0 50 1 68 3 42 2 -26 2 -67 0 -90z m5 -269 c2
-53 0 -91 -4 -85 -4 7 -7 64 -6 127 1 126 6 108 10 -42z m-2 -273 l-8 -50 1
100 0 100 7 -50 c4 -27 4 -72 0 -100z m7 -258 c-2 -23 -3 -1 -3 48 0 50 1 68
3 42 2 -26 2 -67 0 -90z m10 -384 c-1 -65 -3 -14 -3 112 0 127 2 180 3 118 2
-62 2 -165 0 -230z m34 -1901 c0 -79 -2 -146 -5 -149 -3 -4 -6 63 -6 147 0 84
2 151 5 149 2 -3 5 -69 6 -147z m-4 -274 l-5 -13 -1 19 c-1 11 2 17 5 13 3 -3
4 -12 1 -19z" />
    <path d="M5690 8825 l0 -15 25 0 25 0 0 15 0 15 -25 0 -25 0 0 -15z" />
    <path d="M5620 8795 l0 -15 25 0 25 0 0 15 0 15 -25 0 -25 0 0 -15z" />
    <path d="M5548 8783 c-3 -7 -49 -32 -88 -47 -8 -3 -22 -10 -30 -15 -8 -4 -30
-16 -48 -25 -60 -32 -77 -41 -117 -67 -22 -14 -47 -29 -55 -32 -18 -9 -58 -35
-94 -62 -86 -65 -157 -122 -196 -159 -25 -23 -71 -66 -103 -94 -31 -29 -83
-82 -113 -120 -31 -37 -70 -80 -85 -95 -29 -28 -122 -153 -146 -195 -7 -12
-13 -29 -13 -37 0 -8 -5 -15 -10 -15 -6 0 -15 -10 -20 -22 -13 -29 -28 -54
-64 -101 l-28 -38 5 -19 5 -20 -14 0 -14 0 0 -20 0 -20 20 0 20 0 0 20 c0 11
5 20 10 20 6 0 10 -4 10 -10 0 -5 7 -10 15 -10 8 0 15 7 15 15 0 8 -6 15 -14
15 l-14 0 5 20 c3 11 9 20 12 20 12 0 69 85 76 113 4 15 11 27 15 27 5 0 11 8
13 18 l5 17 1 -17 1 -18 19 0 c17 0 31 18 31 40 0 5 -8 10 -17 12 l-17 3 17
17 c9 9 17 24 17 32 0 9 5 16 10 16 6 0 10 -9 10 -20 l0 -20 18 0 c19 0 62 41
62 59 0 6 5 11 10 11 6 0 10 9 10 20 l0 20 24 9 23 9 6 31 c4 17 12 31 19 31
l13 0 3 -72 c3 -83 5 -274 17 -2105 l8 -1311 21 -11 21 -11 390 -3 c215 -1
1020 2 1790 6 l1400 9 25 11 24 12 8 35 c8 34 1 3545 -7 3585 l-4 20 -1033 0
c-997 0 -2199 11 -2245 21 -13 2 -23 11 -23 19 l0 15 -40 0 -40 0 0 24 c0 13
-5 26 -10 28 -15 5 65 88 85 88 8 0 18 7 21 15 4 8 12 15 20 15 8 0 14 7 14
15 l0 15 20 0 20 0 0 14 0 13 25 -5 25 -4 0 16 0 16 20 0 20 0 0 20 0 20 -16
0 -16 0 29 23 c15 13 47 32 71 42 23 11 42 22 42 27 0 4 9 8 19 8 11 0 26 6
33 13 7 6 34 22 61 35 26 13 47 30 47 38 l0 14 -29 0 c-16 0 -31 -3 -33 -7z
m-248 -213 c0 -5 -9 -10 -21 -10 l-20 0 6 10 c3 6 13 10 21 10 8 0 14 -4 14
-10z m-53 -26 c-3 -3 -12 -4 -19 -1 l-13 5 19 1 c11 1 17 -2 13 -5z m3111
-409 l22 -16 0 -1714 0 -1714 -22 -12 -22 -12 -611 -9 -610 -10 -1055 6 -1055
6 -50 10 c-27 6 -54 15 -60 21 l-10 10 0 397 c0 1216 28 2967 48 2999 l7 11
328 1 c292 1 694 7 1812 30 190 4 550 8 800 9 l455 3 23 -16z" />
    <path d="M4990 8061 l-25 -7 1 -84 c0 -47 4 -132 9 -189 l8 -104 16 -16 c9 -9
27 -40 40 -69 l24 -52 19 0 c10 0 21 -7 25 -16 l6 -15 26 2 c26 2 51 -5 83
-22 26 -14 64 -11 78 6 7 8 26 15 41 15 l29 0 10 25 10 25 23 0 c23 0 67 37
67 57 0 6 14 27 30 48 l30 38 0 27 0 27 25 27 c14 15 28 39 31 53 4 15 13 38
20 52 8 14 14 34 14 43 0 10 9 22 20 28 24 13 26 36 4 44 -9 3 -34 6 -57 7
l-42 0 20 9 c11 5 46 9 78 9 l57 1 0 13 0 14 -112 6 c-146 9 -576 7 -608 -2z" />
    <path d="M5120 8395 c0 -8 -7 -15 -15 -15 l-15 0 0 -25 0 -25 16 0 c9 0 18 9
21 20 3 11 12 20 19 20 l14 0 0 20 0 20 -20 0 -20 0 0 -15z" />
    <path d="M4297 7563 c-4 -3 -7 -15 -7 -25 l0 -18 20 0 20 0 0 25 0 25 -13 0
c-8 0 -17 -3 -20 -7z" />
    <path d="M4260 7485 l0 -25 20 0 20 0 0 25 0 25 -20 0 -20 0 0 -25z" />
  </g>
  <g transform="translate(0.000000,1347.000000) scale(0.100000,-0.100000)" fill="#adbcd6" stroke="none">
    <path d="M2205 12480 l-20 -9 670 0 670 0 -20 9 -20 9 -630 0 -630 0 -20 -9z" />
    <path d="M1265 12470 l-40 -7 192 -2 192 -1 6 10 6 10 -158 -1 c-87 -1 -176
-5 -198 -9z" />
    <path d="M6775 12470 l6 -10 732 2 732 1 -85 8 c-47 4 -379 7 -738 8 l-653 1
6 -10z" />
    <path d="M1028 12464 c-3 -3 -74 -8 -158 -12 l-153 -7 -14 -50 -15 -50 -5
-1075 -4 -1075 9 -40 10 -40 1 471 c1 697 15 1692 22 1594 l6 -85 0 134 1 134
13 8 c8 5 26 9 41 9 15 0 30 5 33 10 l6 10 -15 0 c-9 0 -16 5 -16 10 0 10 4
11 55 15 17 2 77 7 135 13 58 6 133 11 167 12 34 0 65 5 68 10 l6 10 -94 0
c-51 0 -96 -2 -99 -6z m-258 -44 c0 -5 -7 -7 -15 -4 -8 4 -15 8 -15 10 0 2 7
4 15 4 8 0 15 -4 15 -10z" />
    <path d="M8278 12458 l11 -11 81 -2 c44 -1 86 -7 91 -12 l10 -10 5 -174 6
-174 10 -10 11 -10 -7 190 -7 190 -22 17 -22 17 -89 0 -89 0 11 -11z" />
    <path d="M8380 12415 l-13 -15 18 -20 17 -19 8 -123 7 -123 2 105 c0 58 4 129
7 158 l7 52 -20 0 c-11 0 -26 -7 -33 -15z" />
    <path d="M721 11786 c0 -170 1 -307 4 -304 10 10 15 512 6 563 l-9 50 -1 -309z" />
    <path d="M8491 11413 l-1 -352 10 -6 10 -6 -1 298 c-1 164 -5 325 -9 358 l-7
60 -2 -352z" />
    <path d="M8430 11740 c0 -7 3 -10 7 -7 3 4 3 10 0 14 -4 3 -7 0 -7 -7z" />
    <path d="M8435 11162 c2 -310 6 -566 9 -569 9 -9 5 826 -4 992 l-8 140 3 -563z" />
    <path d="M720 11417 c0 -20 4 -38 9 -42 l10 -5 -6 37 c-8 50 -13 55 -13 10z" />
    <path d="M8500 10606 l0 -415 10 -6 10 -6 0 420 0 421 -10 0 -10 0 0 -414z" />
    <path d="M8442 10250 c0 -14 2 -19 5 -12 2 6 2 18 0 25 -3 6 -5 1 -5 -13z" />
    <path d="M8510 9691 l0 -320 10 -6 10 -6 0 325 0 326 -10 0 -10 0 0 -319z" />
    <path d="M8443 9830 c0 -30 2 -43 4 -27 2 15 2 39 0 55 -2 15 -4 2 -4 -28z" />
    <path d="M8438 9483 c-1 -148 -2 -333 -3 -413 0 -80 2 -154 6 -165 4 -11 8
175 8 413 1 237 -1 432 -4 432 -3 0 -6 -120 -7 -267z" />
    <path d="M8520 8895 l0 -226 10 6 10 6 0 214 0 214 -10 6 -10 6 0 -226z" />
    <path d="M6460 9019 c-154 -13 -325 -39 -410 -61 -41 -11 -88 -24 -105 -28
-37 -10 -171 -54 -205 -68 -14 -5 -45 -18 -70 -27 -41 -16 -125 -54 -250 -114
-48 -23 -54 -27 -140 -81 -30 -19 -69 -42 -87 -52 -38 -21 -153 -107 -153
-115 0 -7 71 37 97 60 21 19 51 38 83 53 8 4 33 19 55 33 40 26 57 35 117 67
18 9 40 21 48 25 8 5 22 12 30 15 39 15 85 40 88 47 2 4 13 7 25 7 12 0 31 7
41 15 11 8 29 15 41 15 12 0 25 4 30 9 6 4 35 16 65 26 30 9 63 21 72 26 10 5
34 13 55 18 21 5 62 16 91 24 l52 15 0 -18 0 -19 58 -3 57 -3 3 -36 3 -37 20
-17 c10 -10 19 -29 19 -42 0 -23 31 -63 50 -63 6 0 10 -18 10 -39 l0 -40 16
-15 15 -16 -6 -43 -7 -43 25 -13 c29 -15 36 -34 30 -78 l-5 -31 -19 -5 -19 -5
0 -20 0 -19 43 -10 42 -11 -48 -1 -48 -1 3 -17 3 -18 40 -9 40 -9 990 -6 c545
-3 1010 -3 1035 0 52 8 65 4 76 -19 4 -9 10 -813 12 -1787 l4 -1770 -11 -28
-11 -27 -27 -11 -28 -11 -1398 -5 -1398 -6 -6 -10 -6 -10 1404 5 1404 6 35 14
c19 8 41 26 48 39 l13 24 -4 1735 c-2 954 -6 1764 -9 1800 l-7 64 -18 14 -18
13 -66 -7 c-37 -3 -73 -3 -79 1 -7 4 -204 7 -439 7 -234 -1 -432 2 -439 7
l-13 8 68 6 c37 4 104 7 148 7 44 0 137 3 207 7 l127 6 -5 9 c-3 4 -20 8 -39
8 -38 0 -48 9 -35 30 l9 14 23 -11 c13 -7 37 -15 55 -18 l32 -6 23 27 c39 46
49 54 58 49 4 -2 10 9 14 25 3 17 11 30 18 30 7 0 22 -12 34 -27 l23 -28 11
11 11 11 -39 42 c-21 22 -44 41 -51 41 -7 0 -24 14 -38 30 -13 17 -29 30 -35
30 -6 0 -27 13 -47 29 -20 15 -54 38 -76 50 -22 12 -60 33 -85 47 -110 63
-212 113 -305 151 -116 47 -266 96 -345 113 -30 6 -84 18 -120 25 -36 8 -126
17 -200 20 -74 3 -166 7 -205 9 -38 2 -117 0 -175 -5z m-230 -59 c-14 -4 -39
-8 -57 -9 -17 -1 -35 -5 -38 -11 -3 -5 -27 -10 -53 -9 l-47 1 45 10 c80 16
135 26 155 26 l20 0 -25 -8z m1830 -464 c0 -21 -72 -116 -88 -116 -4 0 -14 4
-22 10 l-14 9 27 10 27 10 16 41 16 40 19 0 c10 0 19 -2 19 -4z m-235 -145 c8
-14 -13 -24 -33 -16 l-16 6 14 9 c19 12 27 12 35 1z m-458 -68 c-4 -3 -10 -3
-14 0 -3 4 0 7 7 7 7 0 10 -3 7 -7z" />
    <path d="M5973 8893 c-7 -2 -13 -11 -13 -19 l0 -15 27 3 28 3 3 18 3 17 -18
-1 c-10 0 -24 -3 -30 -6z" />
    <path d="M8520 8644 c0 -8 5 -24 10 -35 l11 -19 1189 0 1189 0 6 10 6 10
-1193 0 -1193 -1 -3 26 c-4 27 -22 35 -22 9z" />
    <path d="M11220 8610 l0 -10 300 0 300 0 0 10 0 10 -300 0 -300 0 0 -10z" />
    <path d="M8430 8591 c0 -11 5 -23 10 -26 l10 -6 0 25 c0 14 -4 26 -10 26 -5 0
-10 -9 -10 -19z" />
    <path d="M11895 8602 l10 -10 208 -4 209 -4 8 -14 c13 -21 0 -39 -28 -39 -119
2 -1438 -14 -1441 -17 -2 -2 290 -4 650 -5 360 0 676 -4 704 -7 l50 -7 5 -29
c3 -16 10 -31 17 -33 l12 -4 3 32 c2 18 8 34 14 36 l11 4 11 -123 c7 -68 12
-155 12 -195 l0 -72 10 -6 10 -6 0 63 c0 35 -5 142 -11 238 l-12 175 -13 14
-13 14 -218 5 -218 4 10 -10z" />
    <path d="M10258 8513 c7 -3 16 -2 19 1 4 3 -2 6 -13 5 l-19 -1 13 -5z" />
    <path d="M10468 8513 c6 -2 18 -2 25 0 6 3 1 5 -13 5 -14 0 -19 -2 -12 -5z" />
    <path d="M10693 8513 c9 -2 25 -2 35 0 9 3 1 5 -18 5 -19 0 -27 -2 -17 -5z" />
    <path d="M10763 8513 c4 -3 10 -3 14 0 3 4 0 7 -7 7 -7 0 -10 -3 -7 -7z" />
    <path d="M4948 8403 c-64 -56 -88 -85 -50 -63 29 17 138 120 127 120 -6 0 -41
-26 -77 -57z" />
    <path d="M8084 8397 l-7 -18 12 -12 11 -11 10 10 10 10 -14 20 -15 19 -7 -18z" />
    <path d="M8190 8384 l0 -15 10 6 c6 3 10 10 10 16 0 5 -4 9 -10 9 -5 0 -10 -7
-10 -16z" />
    <path d="M12291 8310 c1 -36 5 -78 9 -95 l8 -30 1 80 c0 44 -4 87 -9 95 l-10
15 1 -65z" />
    <path d="M8160 8351 c0 -5 -3 -17 -7 -27 l-6 -17 13 5 c15 5 22 48 8 48 -4 0
-8 -4 -8 -9z" />
    <path d="M7978 8323 c7 -3 16 -2 19 1 4 3 -2 6 -13 5 l-19 -1 13 -5z" />
    <path d="M4825 8290 c-16 -16 -24 -30 -19 -30 6 0 23 14 39 30 16 17 24 30 19
30 -6 0 -23 -13 -39 -30z" />
    <path d="M4743 8213 c-11 -16 -51 -62 -89 -104 -82 -90 -178 -220 -224 -304
-19 -33 -46 -76 -60 -95 -28 -37 -113 -206 -150 -300 -12 -30 -28 -68 -35 -85
-22 -55 -34 -89 -63 -190 -38 -127 -47 -172 -67 -320 l-17 -120 5 -320 5 -320
15 -80 c18 -97 69 -293 104 -395 14 -41 47 -120 73 -175 26 -55 50 -112 54
-127 3 -16 11 -28 16 -28 6 0 10 -7 10 -15 0 -8 14 -30 30 -48 17 -19 30 -42
30 -50 0 -9 5 -19 11 -23 l12 -7 9 17 c5 9 16 16 23 16 l15 0 0 -19 0 -19 -20
-5 -20 -5 6 -16 c3 -9 10 -16 15 -16 4 0 20 11 34 24 l25 24 -6 16 c-3 9 -12
16 -20 16 l-14 0 0 23 c0 24 -37 67 -58 67 -17 0 -15 -30 3 -36 8 -4 15 -13
15 -21 l0 -14 -17 3 c-10 2 -22 15 -27 29 l-9 27 34 31 c19 17 37 31 42 31 4
0 7 -9 7 -19 0 -11 14 -33 30 -49 17 -17 30 -38 30 -48 l0 -18 12 12 12 12
-14 25 -14 25 11 11 10 10 26 -10 27 -10 -7 -33 -6 -33 16 14 c9 7 17 19 17
26 0 8 5 15 11 17 l12 4 -12 21 c-16 32 -14 42 14 49 l24 6 7 35 7 35 8 -14
c5 -7 9 -23 9 -36 0 -13 4 -21 8 -18 5 3 12 72 16 153 4 81 11 164 15 183 l9
35 2 -75 c1 -41 3 -84 4 -95 1 -11 3 -67 4 -124 1 -57 4 -102 7 -99 6 6 11
136 22 598 l8 345 6 -210 c4 -115 7 -481 8 -812 l2 -602 22 -16 21 -15 154 0
153 0 -6 10 -6 10 -142 0 -142 1 -17 13 -18 13 0 719 c-1 736 -14 1601 -26
1732 l-7 73 -16 -3 -16 -3 -7 -60 c-4 -33 -11 -67 -15 -75 -4 -8 -12 -40 -17
-70 l-11 -55 -27 3 -28 3 0 -15 0 -16 -23 0 c-13 0 -32 -9 -41 -19 -9 -10 -29
-21 -42 -24 l-26 -5 -5 14 c-6 17 -35 18 -51 2 l-11 -11 -10 25 c-12 32 -48
58 -78 58 l-23 0 -12 -20 c-15 -23 -38 -27 -38 -6 0 23 -20 30 -46 15 l-24
-12 0 -21 c0 -12 -5 -28 -10 -36 l-10 -15 0 28 0 28 -15 5 c-18 7 -20 31 -4
36 l12 4 -7 47 -7 47 -13 0 c-18 0 -46 -65 -48 -113 l-1 -42 -4 32 c-9 70 48
292 127 493 12 30 29 75 38 100 10 25 21 51 26 59 17 27 66 126 66 135 0 4 13
25 28 45 16 20 32 43 35 51 4 8 16 29 27 45 10 17 27 46 37 65 23 47 110 163
168 225 62 66 138 165 127 165 -4 0 -17 -12 -29 -27z m-656 -1435 l-5 -13 -1
19 c-1 11 2 17 5 13 3 -3 4 -12 1 -19z m-10 -45 c-4 -3 -7 0 -7 7 0 7 3 10 7
7 3 -4 3 -10 0 -14z m-10 -80 c-4 -3 -7 0 -7 7 0 7 3 10 7 7 3 -4 3 -10 0 -14z
m288 -1373 c3 -5 1 -10 -4 -10 -6 0 -11 5 -11 10 0 6 2 10 4 10 3 0 8 -4 11
-10z m155 -10 c0 -5 -2 -10 -4 -10 -3 0 -8 5 -11 10 -3 6 -1 10 4 10 6 0 11
-4 11 -10z" />
    <path d="M7205 8149 c-176 -4 -592 -12 -925 -18 -788 -15 -1014 -20 -1077 -27
l-53 -5 0 -13 0 -13 137 -6 c75 -4 327 -7 561 -7 l425 0 11 -14 11 -15 105 -4
105 -4 -3 -26 -3 -25 21 -7 22 -7 -6 -21 c-4 -12 -13 -77 -21 -144 -19 -169
-25 -196 -47 -211 -10 -7 -18 -24 -18 -37 0 -13 -12 -37 -26 -54 l-26 -31 7
-39 6 -39 -34 -21 c-34 -21 -47 -44 -47 -88 0 -13 -9 -32 -20 -43 -11 -11 -20
-27 -20 -35 0 -8 -17 -23 -38 -34 -21 -11 -44 -31 -52 -46 l-14 -26 12 -19 12
-20 -44 -19 -43 -20 -13 -30 -12 -29 -34 5 -34 6 0 -22 0 -21 -67 -65 c-36
-36 -78 -72 -92 -80 -45 -24 -56 -29 -161 -66 -14 -4 -46 -14 -72 -21 l-47
-12 -3 -15 -3 -15 -50 -2 c-28 -1 -88 -5 -135 -7 l-85 -5 -45 16 c-25 8 -49
19 -54 24 -6 4 -16 8 -24 8 -8 0 -25 9 -39 20 -14 11 -38 20 -53 20 l-28 0
-12 30 c-7 16 -21 32 -31 35 l-19 6 0 28 c0 30 -16 51 -39 51 l-16 0 -2 58 c0
31 -4 103 -8 160 l-7 103 -16 -3 -17 -3 -7 -350 c-4 -193 -11 -699 -16 -1125
l-9 -775 8 -128 c4 -71 10 -131 13 -134 3 -3 45 -9 93 -13 97 -9 1708 -16
2561 -12 l542 2 0 10 0 10 -1512 1 c-832 0 -1547 4 -1588 7 l-75 7 -8 45 -8
45 6 740 c4 407 10 767 15 800 l7 60 3 -240 c1 -132 3 -274 4 -315 1 -41 3
-210 4 -374 l2 -300 11 11 10 10 6 242 c3 133 9 238 14 234 4 -4 9 -79 12
-166 l5 -159 11 -11 11 -11 0 38 0 37 11 -6 c5 -4 9 -21 7 -38 l-3 -32 25 0
25 0 3 23 c4 30 20 28 32 -4 l10 -25 10 6 c6 4 8 10 5 15 -3 4 2 13 9 19 17
14 24 5 24 -30 0 -15 8 -38 18 -52 l19 -26 42 -10 c23 -6 51 -11 63 -11 11 0
23 -6 26 -14 l5 -14 77 0 76 0 4 -11 4 -11 68 0 68 0 4 10 3 10 131 5 131 4
37 20 c20 12 45 21 56 21 20 0 24 9 21 43 l-2 17 20 0 c12 0 21 -4 21 -9 0 -5
9 -11 20 -14 l20 -5 29 35 30 36 45 -6 46 -7 0 19 0 18 23 -4 22 -4 33 30 32
29 19 -5 19 -5 47 46 c26 25 52 43 57 40 5 -3 19 4 30 16 l20 21 15 -5 15 -6
5 20 5 20 20 0 c10 0 31 11 46 25 15 14 34 25 42 25 8 0 24 7 35 16 l20 14
-13 21 c-16 25 -6 42 19 34 l19 -6 0 20 0 21 39 0 c22 0 43 5 46 10 3 6 15 10
26 10 10 0 27 8 38 19 l19 19 -5 26 -5 26 14 0 c9 0 30 13 49 29 18 16 37 28
41 25 11 -7 60 47 68 75 l6 26 23 3 23 4 11 28 11 29 21 3 20 3 1 40 c0 22 6
50 12 61 l11 21 31 6 30 7 0 15 c0 8 6 15 13 15 7 0 21 18 31 41 l18 41 21 -6
c25 -6 57 10 57 30 0 8 9 25 21 37 l20 22 -21 17 c-12 10 -19 22 -15 28 3 6
22 17 41 25 l34 14 0 49 0 50 15 12 c8 7 15 18 15 25 0 7 7 18 15 25 8 7 15
20 15 29 0 10 11 28 25 41 l25 23 0 33 0 32 14 5 c8 3 16 16 18 29 l3 23 20 3
c11 3 28 13 38 23 l19 20 5 47 5 47 26 28 26 27 -20 14 -19 15 17 6 c9 4 22 4
28 0 5 -3 10 -2 10 4 0 5 -6 11 -12 14 l-13 4 12 24 c6 13 14 45 18 71 l6 46
25 17 25 16 -3 17 c-2 9 -10 17 -18 17 l-15 0 -3 37 -3 36 26 26 26 26 0 42
c0 24 -1 58 -1 76 0 18 5 43 12 55 6 12 12 49 13 82 l2 60 -15 25 c-8 14 -21
28 -28 32 l-12 8 5 20 c3 11 1 26 -5 33 l-11 12 11 48 10 48 -16 18 c-9 10
-16 31 -16 48 l0 31 -62 10 c-108 19 -198 22 -688 22 -261 1 -565 4 -675 8
l-200 7 540 12 c297 6 770 15 1052 19 l512 7 16 -13 15 -12 0 -1703 c0 -937
-3 -1710 -6 -1719 -3 -9 -14 -16 -24 -16 -11 0 -22 -4 -25 -10 l-6 -10 21 0
c12 0 30 5 41 10 l19 11 0 1724 0 1724 -22 15 -22 16 -411 -2 c-225 0 -554 -5
-730 -9z m642 -249 c0 -16 -4 -27 -9 -24 -4 3 -8 16 -8 30 0 13 4 24 8 24 5 0
9 -13 9 -30z m-1070 -2197 c-4 -3 -10 -3 -14 0 -3 4 0 7 7 7 7 0 10 -3 7 -7z" />
    <path d="M693 6543 l3 -1578 13 -125 c6 -69 14 -135 16 -146 l5 -21 28 -12
c15 -7 122 -19 238 -28 l209 -16 1350 -4 1350 -4 -10 10 -10 10 -1225 4 -1225
4 -260 12 c-143 6 -281 16 -307 22 l-46 11 -7 21 -6 22 -9 -22 -9 -23 -16 6
c-8 3 -15 12 -15 20 0 8 -4 14 -8 14 -4 0 -14 100 -22 223 l-13 222 -2 615 -1
615 6 -230 6 -230 0 755 c0 415 -3 676 -6 580 l-6 -175 -2 507 -2 507 -10 6
-11 7 4 -1579z m24 425 c-2 -24 -4 -5 -4 42 0 47 2 66 4 43 2 -24 2 -62 0 -85z
m0 -215 c-2 -16 -4 -3 -4 27 0 30 2 43 4 28 2 -16 2 -40 0 -55z m0 -225 c-2
-18 -4 -6 -4 27 0 33 2 48 4 33 2 -15 2 -42 0 -60z" />
    <path d="M4943 8113 c-7 -2 -13 -16 -13 -29 l0 -24 19 0 c24 0 45 25 37 45 -5
15 -20 18 -43 8z" />
    <path d="M5060 8085 l0 -15 35 0 35 0 0 15 0 15 -35 0 -35 0 0 -15z" />
    <path d="M12296 7948 c-7 -134 1 -959 10 -967 2 -2 4 244 4 547 0 304 -2 552
-4 552 -2 0 -6 -60 -10 -132z" />
    <path d="M12362 7820 c0 -14 2 -19 5 -12 2 6 2 18 0 25 -3 6 -5 1 -5 -13z" />
    <path d="M12362 6613 l-2 -1162 10 -6 10 -6 -1 1033 c-1 568 -5 1094 -9 1168
l-7 135 -1 -1162z" />
    <path d="M723 7525 l0 -40 4 23 c2 12 2 30 0 40 -3 9 -5 -1 -4 -23z" />
    <path d="M720 7460 c0 -7 3 -10 7 -7 3 4 3 10 0 14 -4 3 -7 0 -7 -7z" />
    <path d="M12296 6954 c-3 -9 -2 -23 4 -32 l9 -17 1 33 c0 35 -5 41 -14 16z" />
    <path d="M12302 6710 c0 -14 2 -19 5 -12 2 6 2 18 0 25 -3 6 -5 1 -5 -13z" />
    <path d="M12300 6490 c0 -7 3 -10 7 -7 3 4 3 10 0 14 -4 3 -7 0 -7 -7z" />
    <path d="M12300 6270 c0 -7 3 -10 7 -7 3 4 3 10 0 14 -4 3 -7 0 -7 -7z" />
    <path d="M722 5890 c0 -19 2 -27 5 -17 2 9 2 25 0 35 -3 9 -5 1 -5 -18z" />
    <path d="M723 5785 c0 -33 2 -45 4 -27 2 18 2 45 0 60 -2 15 -4 0 -4 -33z" />
    <path d="M722 5660 c0 -19 2 -27 5 -17 2 9 2 25 0 35 -3 9 -5 1 -5 -18z" />
    <path d="M722 5540 c0 -19 2 -27 5 -17 2 9 2 25 0 35 -3 9 -5 1 -5 -18z" />
    <path d="M12367 5383 c-9 -15 -6 -163 4 -168 l9 -6 0 90 c0 86 -2 101 -13 84z" />
    <path d="M4730 5190 c0 -7 3 -10 7 -7 3 4 3 10 0 14 -4 3 -7 0 -7 -7z" />
    <path d="M12367 5133 c-11 -10 -8 -51 3 -58 l10 -6 0 35 c0 37 -2 41 -13 29z" />
    <path d="M4500 5051 l0 -21 16 0 15 0 -3 17 c-2 9 -9 18 -15 21 l-13 4 0 -21z" />
    <path d="M12367 5043 c-3 -5 -5 -79 -5 -165 l0 -158 9 -6 9 -5 0 170 c0 94 -2
171 -4 171 -3 0 -7 -3 -9 -7z" />
    <path d="M4610 5010 l0 -24 12 12 12 12 -12 12 -12 12 0 -24z" />
    <path d="M4530 5013 c0 -5 4 -15 10 -23 11 -18 25 -7 17 15 -6 15 -27 21 -27
8z" />
    <path d="M4511 4932 c12 -20 26 -41 31 -46 l8 -10 0 11 c0 18 -34 72 -48 78
l-14 5 23 -38z" />
    <path d="M4570 4950 c6 -11 13 -20 15 -20 3 0 5 9 5 20 l0 20 -15 0 -16 0 11
-20z" />
    <path d="M4560 4845 l0 -26 10 6 c6 3 10 12 10 20 0 8 -4 17 -10 20 l-10 6 0
-26z" />
    <path d="M770 4730 c0 -11 5 -20 10 -20 6 0 10 9 10 20 0 11 -4 20 -10 20 -5
0 -10 -9 -10 -20z" />
    <path d="M5038 4723 c7 -3 16 -2 19 1 4 3 -2 6 -13 5 l-19 -1 13 -5z" />
    <path d="M8263 4723 c4 -3 10 -3 14 0 3 4 0 7 -7 7 -7 0 -10 -3 -7 -7z" />
    <path d="M12365 4678 c-4 -10 -4 -26 0 -35 l8 -18 4 18 c3 9 3 25 0 35 l-4 17
-8 -17z" />
    <path d="M4105 4670 l-20 -9 58 0 58 -1 -6 10 c-7 12 -62 12 -90 0z" />
    <path d="M8115 4670 l-6 -10 46 0 46 0 -6 10 c-3 6 -21 10 -40 10 -19 0 -37
-4 -40 -10z" />
    <path d="M3940 4610 c14 -4 98 -8 188 -9 l163 -1 -6 10 -6 10 -182 -1 -182 -1
25 -8z" />
    <path d="M4390 4601 l0 -11 43 -2 c76 -3 82 -4 95 -12 l13 -8 -3 -112 c-3
-108 20 -1056 26 -1086 8 -35 4 738 -4 875 l-9 150 12 83 11 82 -19 20 -20 19
-72 7 -73 7 0 -12z" />
    <path d="M12367 4603 c-11 -10 -8 -51 3 -58 l10 -6 0 35 c0 37 -2 41 -13 29z" />
    <path d="M5145 4570 l-6 -10 63 1 63 1 -30 8 c-44 11 -83 11 -90 0z" />
    <path d="M5390 4570 l-15 -10 23 0 23 0 -6 10 c-7 12 -6 12 -25 0z" />
    <path d="M12365 4511 c-3 -5 -1 -12 5 -16 l10 -6 0 15 c0 18 -6 21 -15 7z" />
    <path d="M12370 2620 l0 -630 10 0 10 0 0 630 0 630 -10 0 -10 0 0 -630z" />
    <path d="M4565 2165 c0 -369 1 -518 2 -332 2 186 2 488 0 670 -1 183 -2 31 -2
-338z" />
    <path d="M12297 2485 c-4 -8 -2 -17 3 -20 l10 -6 0 20 c0 25 -6 27 -13 6z" />
    <path d="M12303 2345 l0 -40 4 23 c2 12 2 30 0 40 -3 9 -5 -1 -4 -23z" />
    <path d="M12303 2255 l0 -40 4 23 c2 12 2 30 0 40 -3 9 -5 -1 -4 -23z" />
    <path d="M12303 2150 c0 -25 2 -35 4 -22 2 12 2 32 0 45 -2 12 -4 2 -4 -23z" />
    <path d="M12302 2035 l0 -30 5 18 c2 9 2 23 0 30 -3 6 -5 -1 -5 -18z" />
    <path d="M12297 1873 c-8 -155 -7 -474 3 -678 l6 -150 2 478 c1 262 0 477 -1
477 -2 0 -7 -57 -10 -127z" />
    <path d="M12368 1744 c-5 -4 -7 -111 -7 -238 l2 -231 9 85 c10 98 7 395 -4
384z" />
    <path d="M4561 1075 c1 -99 4 -193 8 -210 l6 -30 53 -17 52 -17 283 -13 282
-12 3415 -1 3415 0 128 11 128 10 16 23 16 23 2 119 c2 119 -6 147 -19 67 -18
-104 -22 -119 -31 -118 -5 1 -12 -9 -15 -22 l-6 -23 -39 -9 -40 -10 -3744 -3
-3744 -3 -12 10 -11 9 -36 -11 c-20 -6 -44 -8 -53 -4 l-17 6 6 16 c4 9 1 23
-6 31 l-11 14 -5 162 c-2 89 -8 166 -13 172 l-9 9 1 -179z m7789 -219 c0 -7
-8 -20 -17 -29 l-18 -15 -145 0 -145 0 100 9 c55 4 113 10 129 13 l29 6 13
-11 c18 -15 34 -3 34 27 l0 25 10 -6 c6 -3 10 -12 10 -19z m-450 -48 c14 -1
-15 -4 -65 -9 -113 -9 -5300 -11 -5837 -2 -218 3 -395 10 -392 14 2 5 1414 6
3137 3 1723 -2 3143 -5 3157 -6z m77 6 c-3 -3 -12 -4 -19 -1 l-13 5 19 1 c11
1 17 -2 13 -5z" />
  </g>
  <g transform="translate(0.000000,1347.000000) scale(0.100000,-0.100000)" fill=" #F5F7FE" stroke="none">
    <path d="M2538 12483 c178 -2 466 -2 640 0 174 1 29 2 -323 2 -352 0 -495 -1
-317 -2z" />
    <path d="M1523 12473 c125 -2 329 -2 455 0 125 1 22 2 -228 2 -250 0 -353 -1
-227 -2z" />
    <path d="M4658 12473 c635 -2 1670 -2 2300 0 631 1 112 2 -1153 2 -1265 0
-1781 -1 -1147 -2z" />
    <path d="M980 12460 c-25 -4 23 -5 105 -2 83 3 152 6 154 8 7 7 -212 1 -259
-6z" />
    <path d="M8232 12464 c3 -3 51 -5 107 -6 l102 0 21 -17 21 -17 7 -340 8 -339
-2 344 -3 343 -24 19 -24 19 -109 0 c-60 0 -107 -2 -104 -6z" />
    <path d="M709 12433 l-14 -16 -7 -166 c-6 -165 -8 -2104 -2 -2066 2 11 5 499
7 1085 l3 1065 14 30 c7 17 13 39 14 50 l1 20 105 6 105 5 -106 2 -107 2 -13
-17z" />
    <path d="M8529 12435 c-2 -15 2 -671 6 -845 5 -278 25 -1042 30 -1180 2 -74 5
-305 5 -512 0 -208 3 -378 8 -378 12 0 1 1386 -21 2587 l-6 303 -10 17 c-6 10
-11 14 -12 8z" />
    <path d="M8500 11504 c0 -153 13 -1403 25 -2404 l6 -485 11 -10 11 -10 -6 10
c-6 12 -13 523 -27 1994 -6 580 -13 1057 -15 1060 -3 2 -5 -67 -5 -155z" />
    <path d="M693 7555 l-2 -2580 9 -85 c5 -47 12 -113 16 -147 l7 -63 31 -18 32
-19 129 -6 c72 -4 180 -11 240 -17 l110 -9 1335 2 1335 1 -1350 6 -1350 7
-222 16 c-122 9 -233 22 -247 29 -15 6 -28 21 -31 32 -2 12 -10 77 -17 146
l-12 125 -6 2580 -5 2580 -2 -2580z" />
    <path d="M8575 9462 c-7 -23 1 -171 9 -179 3 -4 6 39 6 95 0 56 -2 102 -4 102
-3 0 -7 -8 -11 -18z" />
    <path d="M8583 9048 c1 -119 5 -220 10 -224 4 -4 10 -4 14 -1 3 4 5 80 4 169
l-2 163 -14 55 -14 55 2 -217z" />
    <path d="M6338 8995 c-3 -3 -47 -10 -97 -16 -98 -11 -182 -28 -271 -54 -30 -9
-72 -21 -93 -26 -21 -5 -45 -13 -55 -18 -9 -5 -42 -17 -72 -26 -30 -10 -59
-22 -64 -26 -6 -5 -19 -9 -29 -9 -10 0 -31 -6 -45 -14 -15 -8 -53 -27 -85 -42
-31 -15 -55 -30 -52 -32 6 -6 77 29 86 41 4 5 15 7 25 5 l19 -4 -50 -24 c-27
-14 -56 -31 -63 -37 -7 -7 -23 -13 -34 -13 l-20 0 12 15 c7 8 10 15 6 15 -8 0
-119 -60 -131 -71 -18 -17 6 -9 45 16 39 25 70 32 70 17 0 -5 -19 -16 -42 -27
-24 -10 -56 -29 -72 -43 -17 -13 -39 -28 -50 -33 -46 -21 -149 -89 -154 -101
-2 -5 -9 -8 -16 -8 -6 0 -19 -8 -27 -17 -9 -10 -39 -38 -68 -62 -47 -40 -62
-61 -43 -61 4 0 33 25 66 55 32 30 64 55 71 55 7 0 15 7 19 15 3 8 12 15 19
15 8 0 20 7 27 15 7 8 16 15 21 15 5 0 9 -7 9 -15 0 -8 -6 -15 -14 -15 -8 0
-16 -7 -20 -15 -3 -8 -13 -15 -21 -15 -17 0 -135 -118 -135 -136 0 -5 5 -15
12 -22 l11 -11 59 6 58 6 0 -16 0 -17 23 -4 c38 -8 890 -18 1792 -22 473 -2
961 -4 1085 -4 124 -1 264 2 312 5 l87 8 5 -24 c8 -41 16 -3532 8 -3569 l-8
-35 -24 -11 -25 -12 -1400 -8 c-770 -5 -1446 -9 -1502 -9 -56 0 -99 -3 -95 -6
10 -8 2952 8 3002 16 l40 7 16 30 16 30 -4 1777 -3 1777 -18 28 -19 28 -31 -6
c-18 -4 -455 -7 -971 -6 l-940 1 -100 10 c-56 6 -105 15 -111 20 l-10 10 113
-6 112 -6 0 11 0 10 -37 0 c-21 0 -68 8 -106 17 l-67 17 3 11 c2 5 17 13 33
16 16 4 23 7 17 8 -15 1 -17 37 -3 46 l10 6 -10 18 c-5 10 -7 21 -4 24 3 3 -8
13 -25 23 l-30 18 6 44 6 44 -12 8 c-7 4 -15 27 -17 51 -3 24 -9 45 -13 47
-22 8 -42 30 -46 51 -2 13 -2 21 2 18 8 -9 43 11 43 24 l0 11 -28 -7 -28 -6
-16 18 c-9 10 -18 34 -20 53 l-3 35 -57 3 c-32 2 -58 7 -58 12 0 6 22 10 49
10 28 0 53 5 56 10 3 6 20 10 36 10 16 0 55 9 86 20 l57 20 86 1 c47 0 94 4
105 9 l20 9 -96 0 c-53 1 -98 -1 -101 -4z m-333 -115 c-3 -5 -14 -10 -23 -10
l-17 0 15 10 c20 13 33 13 25 0z m-278 -56 c-3 -3 -12 -4 -19 -1 l-13 5 19 1
c11 1 17 -2 13 -5z m-70 -30 c-3 -3 -12 -4 -19 -1 l-13 5 19 1 c11 1 17 -2 13
-5z m-327 -224 c0 -5 -4 -10 -10 -10 -5 0 -10 5 -10 10 0 6 5 10 10 10 6 0 10
-4 10 -10z m-40 -30 c0 -5 -4 -10 -9 -10 -6 0 -13 5 -16 10 l-6 10 15 0 c9 0
16 -4 16 -10z m-50 -20 c0 -5 -7 -10 -15 -10 -8 0 -15 5 -15 10 0 6 7 10 15
10 8 0 15 -4 15 -10z m-90 -130 c0 -5 -4 -10 -10 -10 -5 0 -10 5 -10 10 0 6 5
10 10 10 6 0 10 -4 10 -10z m-35 -29 c3 -5 1 -12 -5 -16 l-10 -6 0 15 c0 18 6
21 15 7z m-45 -42 l0 -21 -12 4 c-7 3 -14 12 -16 21 l-3 17 15 0 16 0 0 -21z" />
    <path d="M6233 8853 c4 -3 10 -3 14 0 3 4 0 7 -7 7 -7 0 -10 -3 -7 -7z" />
    <path d="M8580 8764 c0 -22 6 -49 14 -59 l13 -19 5 37 4 36 -18 23 -18 23 0
-41z" />
    <path d="M8558 8653 c7 -3 16 -2 19 1 4 3 -2 6 -13 5 l-19 -1 13 -5z" />
    <path d="M5256 8620 c-22 -17 -36 -30 -33 -30 10 0 87 49 87 55 0 11 -17 3
-54 -25z" />
    <path d="M8665 8609 c-49 -3 725 -6 1720 -7 996 -1 1842 -5 1880 -9 l70 -8 8
-100 c4 -55 11 -226 16 -380 l9 -280 -5 310 c-3 171 -6 338 -7 373 l-2 62 -16
16 -16 16 -78 5 c-109 8 -3468 9 -3579 2z" />
    <path d="M5185 8577 c-31 -18 -125 -88 -125 -93 0 -7 68 37 85 56 10 11 24 20
30 20 7 0 18 7 25 15 15 18 12 18 -15 2z" />
    <path d="M12386 8494 c-3 -8 1 -27 8 -42 l15 -27 -2 43 c-1 43 -10 54 -21 26z" />
    <path d="M4902 8352 c-78 -70 -156 -145 -174 -167 -17 -22 -52 -62 -78 -90
-66 -72 -91 -107 -43 -60 23 22 71 76 107 119 36 44 117 124 178 179 124 109
165 147 158 147 -3 0 -69 -58 -148 -128z" />
    <path d="M12403 8098 c4 -166 7 -362 7 -435 l0 -134 8 5 c8 5 9 143 4 659 l-2
207 -12 0 -11 0 6 -302z" />
    <path d="M4960 8285 c0 -8 7 -15 15 -15 8 0 15 7 15 15 0 8 -7 15 -15 15 -8 0
-15 -7 -15 -15z" />
    <path d="M7070 8149 c-1046 -22 -1509 -29 -1807 -29 l-332 -1 -8 -12 c-14 -22
-31 -729 -39 -1667 -5 -514 -9 -1118 -9 -1342 l0 -407 10 -10 c6 -6 33 -15 60
-21 l50 -10 1065 -6 1065 -6 610 10 611 9 22 12 22 12 0 1724 0 1724 -22 16
-23 15 -465 -2 c-256 -1 -620 -5 -810 -9z m1294 -15 l16 -15 0 -1714 0 -1714
-22 -12 -22 -12 -681 -7 c-374 -4 -1103 -5 -1620 -3 -851 4 -1115 10 -1131 26
-3 3 -9 65 -14 138 l-8 134 8 580 c5 319 11 816 15 1105 l6 525 8 8 9 9 7
-104 c4 -56 8 -131 9 -166 3 -60 14 -91 23 -64 l5 13 14 -12 c8 -6 14 -24 14
-40 l0 -28 19 -6 c10 -3 24 -19 31 -35 l12 -30 28 0 c15 0 39 -9 53 -20 14
-11 29 -20 35 -20 5 0 24 -8 43 -17 19 -10 41 -19 49 -22 14 -4 172 -3 275 2
l50 2 3 15 3 15 39 13 c22 6 47 12 55 12 9 0 33 9 55 20 22 11 48 20 58 20 11
0 31 9 44 20 14 10 27 17 30 15 2 -3 39 29 81 70 l77 74 0 21 0 20 14 0 c8 0
18 -4 21 -10 11 -19 25 -10 42 26 l17 36 43 19 c43 20 52 36 32 56 l-11 11 14
22 c7 12 30 30 51 41 20 11 37 26 37 34 0 8 9 24 20 35 11 11 20 30 20 43 0
44 13 67 47 88 l35 22 -5 40 -6 41 25 29 c13 16 24 39 24 52 0 13 8 30 18 37
22 15 28 43 47 214 8 69 19 132 26 140 6 8 8 14 3 14 -5 0 -2 5 6 10 l15 9
-32 12 c-18 6 -33 14 -33 18 0 4 6 13 12 19 l13 13 -13 8 c-7 4 -58 8 -113 9
-56 2 -106 5 -110 8 -5 3 -7 10 -4 15 l6 9 -388 0 c-213 0 -442 2 -508 4 -66
2 -149 5 -185 6 l-65 2 33 8 c19 4 178 11 355 14 177 3 367 8 422 11 55 3 303
8 550 11 248 4 578 10 735 14 157 3 468 7 692 8 l407 2 15 -16z m-3395 -50
c-6 -8 -15 -14 -20 -14 -14 0 -11 28 4 33 20 7 29 -4 16 -19z m144 -1 c-7 -2
-21 -2 -30 0 l-18 5 30 0 c17 0 24 -2 18 -5z m502 -32 l90 -6 -112 -9 c-62 -4
-125 -11 -140 -15 l-28 -8 104 -7 c58 -4 111 -11 120 -15 l14 -9 -21 -11 c-12
-7 -22 -19 -22 -29 0 -9 -6 -29 -14 -43 -7 -14 -16 -37 -20 -52 -3 -14 -17
-38 -31 -53 l-25 -27 0 -27 0 -27 -30 -38 c-16 -21 -30 -43 -30 -50 0 -6 -11
-22 -24 -34 l-24 -23 -20 6 -20 7 -10 -31 -11 -30 -29 0 c-16 0 -35 -7 -42
-15 -16 -19 -49 -19 -56 -1 l-6 15 -14 -6 c-8 -3 -23 2 -33 11 l-19 17 -7 -10
c-10 -18 -33 -12 -40 9 l-7 21 -17 -6 -17 -5 -25 52 c-13 29 -31 60 -40 69
l-16 16 -8 104 c-5 57 -9 138 -9 179 l-1 74 25 7 c32 9 495 9 615 0z" />
    <path d="M6555 8020 c-3 -5 -1 -10 4 -10 6 0 11 5 11 10 0 6 -2 10 -4 10 -3 0
-8 -4 -11 -10z" />
    <path d="M5403 8013 c4 -3 10 -3 14 0 3 4 0 7 -7 7 -7 0 -10 -3 -7 -7z" />
    <path d="M5268 7523 c7 -3 16 -2 19 1 4 3 -2 6 -13 5 l-19 -1 13 -5z" />
    <path d="M4730 8081 c-5 -11 -10 -27 -10 -36 0 -8 -11 -20 -25 -25 l-25 -10 0
-21 0 -21 -16 6 c-9 3 -18 6 -20 6 -2 0 -4 7 -4 15 0 8 -4 15 -10 15 -17 0
-11 -26 10 -45 l20 -18 -25 -25 c-28 -28 -46 -22 -27 9 13 20 9 39 -9 39 -5 0
-9 -7 -9 -15 0 -8 -7 -15 -15 -15 -8 0 -15 -7 -15 -16 0 -8 -13 -29 -30 -47
-16 -18 -30 -38 -30 -44 0 -7 -4 -13 -10 -13 -5 0 -10 6 -10 14 0 8 5 18 10
21 6 3 10 11 10 16 0 16 -20 -1 -31 -24 -10 -24 -17 -36 -70 -117 -44 -68
-111 -200 -151 -300 -58 -145 -66 -166 -85 -230 -41 -133 -52 -177 -63 -255
-6 -44 -16 -111 -22 -150 -6 -38 -13 -136 -15 -216 l-5 -146 10 -19 11 -19 1
115 c1 63 5 138 10 165 4 28 13 88 20 135 7 47 20 103 28 124 l17 39 9 -38 9
-39 -12 -4 c-16 -5 -14 -49 4 -56 l15 -5 0 -31 c0 -16 4 -30 10 -30 12 0 30
34 30 57 0 19 33 46 43 36 4 -3 5 -17 3 -32 -2 -14 -1 -20 1 -13 2 6 14 12 26
12 l22 0 13 20 c7 11 18 20 26 20 7 0 25 -9 40 -21 l27 -21 -11 -13 -11 -13
27 -6 26 -7 15 13 15 12 10 -18 10 -17 31 6 c18 4 42 16 53 27 l21 19 26 -6
26 -7 -4 20 -4 21 27 -2 27 -2 10 55 c5 30 13 60 18 67 4 6 10 39 14 72 3 34
9 64 13 66 4 2 10 -28 14 -68 12 -129 25 -997 26 -1729 l0 -718 23 -14 22 -15
183 -2 c100 -1 185 1 188 3 2 3 -79 6 -181 7 l-186 2 -18 11 -18 11 -8 1311
c-15 2294 -13 2166 -30 2178 -16 12 -24 9 -35 -11z m-186 -246 c-6 -16 -24
-21 -24 -7 0 11 11 22 21 22 5 0 6 -7 3 -15z m-80 -47 c-8 -27 -64 -108 -75
-108 -4 0 -10 -12 -13 -26 l-7 -27 -11 11 -11 11 29 38 c36 47 51 71 64 101 5
12 14 22 20 22 l11 0 -7 -22z m-114 -188 c0 -5 -4 -10 -10 -10 -5 0 -10 5 -10
10 0 6 5 10 10 10 6 0 10 -4 10 -10z m-34 -67 c-10 -10 -19 5 -10 18 l8 13 4
-13 c2 -7 1 -15 -2 -18z m-26 -48 c0 -8 -4 -15 -10 -15 -5 0 -10 7 -10 15 0 8
5 15 10 15 6 0 10 -7 10 -15z" />
    <path d="M4640 8030 c0 -7 3 -10 7 -7 3 4 3 10 0 14 -4 3 -7 0 -7 -7z" />
    <path d="M4553 7978 c-43 -57 -66 -91 -58 -86 12 7 78 98 72 98 -3 0 -9 -6
-14 -12z" />
    <path d="M12362 7785 l0 -30 5 18 c2 9 2 23 0 30 -3 6 -5 -1 -5 -18z" />
    <path d="M12374 4465 l1 -3080 8 320 c4 176 3 1562 -2 3080 l-8 2760 1 -3080z" />
    <path d="M12415 7490 c3 -5 8 -10 11 -10 2 0 4 5 4 10 0 6 -5 10 -11 10 -5 0
-7 -4 -4 -10z" />
    <path d="M4063 6285 c0 -38 2 -53 4 -32 2 20 2 52 0 70 -2 17 -4 1 -4 -38z" />
    <path d="M3960 4607 c3 -2 115 -7 250 -11 135 -3 259 -8 275 -11 l30 -5 -25
11 -25 12 -255 5 c-140 2 -253 2 -250 -1z" />
    <path d="M4524 4581 c4 -6 10 -118 13 -249 2 -130 8 -329 13 -442 l8 -205 -6
335 c-3 184 -6 386 -6 449 l-1 114 -14 5 -14 5 7 -12z" />
    <path d="M5283 4563 c20 -2 54 -2 75 0 20 2 3 4 -38 4 -41 0 -58 -2 -37 -4z" />
    <path d="M4564 3095 c0 -154 2 -216 3 -137 2 79 2 205 0 280 -1 75 -3 11 -3
-143z" />
    <path d="M4562 1193 c-1 -177 1 -328 4 -337 3 -9 20 -24 37 -35 l32 -19 275
-13 275 -14 3460 0 3460 1 105 11 105 10 -250 -6 c-137 -3 -1728 -6 -3535 -5
l-3285 0 -275 13 -275 12 -52 15 c-29 9 -56 21 -60 27 -5 7 -10 158 -13 337
l-6 325 -2 -322z" />
    <path d="M12358 1153 c-1 -76 -3 -177 -3 -225 l-1 -87 -19 -20 c-10 -12 -14
-21 -9 -21 5 0 15 10 23 22 l14 23 4 222 c3 123 2 223 -1 223 -3 0 -7 -62 -8
-137z" />
  </g>
</svg>